<svg width="16" height="17" viewBox="0 0 16 17" fill="none" xmlns="http://www.w3.org/2000/svg">
<path d="M11.5 4.96826L6.03125 11.0308L4.29688 9.12451C4.21354 9.02035 4.10156 8.96566 3.96094 8.96045C3.82031 8.95524 3.69792 8.99951 3.59375 9.09326C3.5 9.18701 3.44792 9.3042 3.4375 9.44482C3.42708 9.58545 3.47396 9.70264 3.57812 9.79639L5.57812 12.0308C5.63021 12.0933 5.6901 12.1401 5.75781 12.1714C5.82552 12.2026 5.89583 12.2183 5.96875 12.2183C5.98958 12.2183 6 12.2183 6 12.2183C6 12.2183 6.01042 12.2183 6.03125 12.2183C6.04167 12.2183 6.04688 12.2183 6.04688 12.2183C6.11979 12.2183 6.19271 12.2026 6.26562 12.1714C6.33854 12.1401 6.40104 12.0985 6.45312 12.0464L12.25 5.65576C12.3333 5.55159 12.375 5.4292 12.375 5.28857C12.375 5.14795 12.3229 5.03597 12.2188 4.95264C12.1146 4.84847 11.9948 4.80159 11.8594 4.81201C11.724 4.82243 11.6042 4.87451 11.5 4.96826ZM8 0.452637C6.89583 0.452637 5.85938 0.66097 4.89062 1.07764C3.92188 1.50472 3.07552 2.08024 2.35156 2.8042C1.6276 3.52816 1.05208 4.37451 0.625 5.34326C0.208333 6.31201 0 7.34847 0 8.45264C0 9.54639 0.208333 10.5828 0.625 11.562C1.05208 12.5308 1.6276 13.3771 2.35156 14.1011C3.07552 14.825 3.92188 15.3953 4.89062 15.812C5.85938 16.2391 6.89583 16.4526 8 16.4526C9.10417 16.4526 10.1406 16.2391 11.1094 15.812C12.0781 15.3953 12.9245 14.825 13.6484 14.1011C14.3724 13.3771 14.9479 12.5308 15.375 11.562C15.7917 10.5828 16 9.54639 16 8.45264C16 7.34847 15.7917 6.31201 15.375 5.34326C14.9479 4.37451 14.3724 3.52816 13.6484 2.8042C12.9245 2.08024 12.0781 1.50472 11.1094 1.07764C10.1406 0.66097 9.10417 0.452637 8 0.452637ZM8 15.4526C7.04167 15.4526 6.13542 15.2651 5.28125 14.8901C4.4375 14.5256 3.69792 14.0256 3.0625 13.3901C2.42708 12.7547 1.92188 12.0151 1.54688 11.1714C1.18229 10.3172 1 9.41097 1 8.45264C1 7.48389 1.18229 6.57764 1.54688 5.73389C1.92188 4.87972 2.42448 4.13753 3.05469 3.50732C3.6849 2.87712 4.42708 2.37451 5.28125 1.99951C6.13542 1.63493 7.04167 1.45264 8 1.45264C8.95833 1.45264 9.86458 1.63493 10.7188 1.99951C11.5625 2.36409 12.3021 2.86409 12.9375 3.49951C13.5729 4.13493 14.0781 4.87972 14.4531 5.73389C14.8177 6.57764 15 7.48389 15 8.45264C15 9.41097 14.8177 10.3172 14.4531 11.1714C14.0781 12.0151 13.5755 12.7547 12.9453 13.3901C12.3151 14.0256 11.5729 14.5256 10.7188 14.8901C9.86458 15.2651 8.95833 15.4526 8 15.4526Z" fill="#267596"/>
</svg>
