<svg width="32" height="32" viewBox="0 0 32 32" fill="none" xmlns="http://www.w3.org/2000/svg">
<rect x="0.5" y="0.5" width="31" height="31" rx="15.5" stroke="#DBDBDB"/>
<path d="M12.3063 22H9.4V12.6562H12.3063V22ZM10.8375 11.4062C9.93125 11.4062 9.18125 10.625 9.18125 9.6875C9.18125 8.78125 9.93125 8.03125 10.8375 8.03125C11.775 8.03125 12.525 8.78125 12.525 9.6875C12.525 10.625 11.775 11.4062 10.8375 11.4062ZM23.15 22H20.275V17.4688C20.275 16.375 20.2438 15 18.7438 15C17.2438 15 17.025 16.1562 17.025 17.375V22H14.1188V12.6562H16.9V13.9375H16.9313C17.3375 13.2188 18.275 12.4375 19.6813 12.4375C22.6188 12.4375 23.1813 14.375 23.1813 16.875V22H23.15Z" fill="white" fill-opacity="0.99"/>
</svg>
