<?xml version="1.0" encoding="UTF-8"?>
<!DOCTYPE svg PUBLIC "-//W3C//DTD SVG 1.1//EN" "http://www.w3.org/Graphics/SVG/1.1/DTD/svg11.dtd">
<svg xmlns="http://www.w3.org/2000/svg" version="1.1" width="2470px" height="1189px" style="shape-rendering:geometricPrecision; text-rendering:geometricPrecision; image-rendering:optimizeQuality; fill-rule:evenodd; clip-rule:evenodd" xmlns:xlink="http://www.w3.org/1999/xlink">
<g><path style="opacity:0.999" fill="#fafafa" d="M 1587.5,71.5 C 1587.97,72.9063 1588.97,73.573 1590.5,73.5C 1592.85,74.3403 1594.85,75.6736 1596.5,77.5C 1596.97,78.9063 1597.97,79.573 1599.5,79.5C 1599.97,80.9063 1600.97,81.573 1602.5,81.5C 1603.17,81.5 1603.5,81.8333 1603.5,82.5C 1603.97,83.9063 1604.97,84.573 1606.5,84.5C 1607.17,84.5 1607.5,84.8333 1607.5,85.5C 1607.97,86.9063 1608.97,87.573 1610.5,87.5C 1611.5,87.8333 1612.17,88.5 1612.5,89.5C 1612.97,90.9063 1613.97,91.573 1615.5,91.5C 1616.83,92.1667 1617.83,93.1667 1618.5,94.5C 1619.26,96.2624 1620.6,97.2624 1622.5,97.5C 1628.5,102.833 1634.17,108.5 1639.5,114.5C 1639.74,116.404 1640.74,117.738 1642.5,118.5C 1643.83,119.167 1644.83,120.167 1645.5,121.5C 1645.74,123.404 1646.74,124.738 1648.5,125.5C 1648.43,127.027 1649.09,128.027 1650.5,128.5C 1652.36,130.891 1653.7,133.558 1654.5,136.5C 1635.82,130.109 1616.82,124.609 1597.5,120C 1550.48,110.198 1503.48,110.364 1456.5,120.5C 1454.51,149.147 1453.84,178.147 1454.5,207.5C 1456.41,207.784 1458.08,207.451 1459.5,206.5C 1532.07,191.239 1604.07,194.072 1675.5,215C 1681.76,216.975 1687.93,219.141 1694,221.5C 1726.91,319.621 1731.07,418.955 1706.5,519.5C 1702.75,519.383 1700.75,517.383 1700.5,513.5C 1700.57,511.973 1699.91,510.973 1698.5,510.5C 1697.66,510.158 1697.33,509.492 1697.5,508.5C 1697.57,506.973 1696.91,505.973 1695.5,505.5C 1693.27,502.709 1691.27,499.709 1689.5,496.5C 1689.57,494.973 1688.91,493.973 1687.5,493.5C 1686.83,493.5 1686.5,493.167 1686.5,492.5C 1686.57,490.973 1685.91,489.973 1684.5,489.5C 1683.17,488.833 1682.17,487.833 1681.5,486.5C 1681.57,484.973 1680.91,483.973 1679.5,483.5C 1673.5,478.167 1667.83,472.5 1662.5,466.5C 1662.03,465.094 1661.03,464.427 1659.5,464.5C 1658.5,464.167 1657.83,463.5 1657.5,462.5C 1657.03,461.094 1656.03,460.427 1654.5,460.5C 1652.61,459.396 1650.94,458.063 1649.5,456.5C 1649.03,455.094 1648.03,454.427 1646.5,454.5C 1646.03,453.094 1645.03,452.427 1643.5,452.5C 1612.95,434.945 1579.95,426.612 1544.5,427.5C 1524.35,427.683 1504.35,429.516 1484.5,433C 1449.35,439.131 1414.35,445.964 1379.5,453.5C 1378.17,453.5 1376.83,453.5 1375.5,453.5C 1375.5,427.833 1375.5,402.167 1375.5,376.5C 1449.56,349.752 1525.73,340.085 1604,347.5C 1607.13,335.611 1607.13,323.611 1604,311.5C 1602.07,303.713 1599.74,296.046 1597,288.5C 1559.15,279.973 1520.99,278.473 1482.5,284C 1447.1,288.848 1412.1,295.681 1377.5,304.5C 1375.5,221.507 1374.84,138.173 1375.5,54.5C 1376.79,54.7373 1377.79,54.404 1378.5,53.5C 1403.94,46.1454 1429.94,40.9787 1456.5,38C 1503.89,35.2623 1547.55,46.429 1587.5,71.5 Z"/></g>
<g><path style="opacity:0.036" fill="#000000" d="M 1378.5,53.5 C 1377.79,54.404 1376.79,54.7373 1375.5,54.5C 1374.84,138.173 1375.5,221.507 1377.5,304.5C 1376.79,305.404 1375.79,305.737 1374.5,305.5C 1374.5,221.5 1374.5,137.5 1374.5,53.5C 1375.83,53.5 1377.17,53.5 1378.5,53.5 Z"/></g>
<g><path style="opacity:0.518" fill="#000000" d="M 1296.5,71.5 C 1297.21,70.596 1298.21,70.2627 1299.5,70.5C 1299.83,98.6716 1299.5,126.672 1298.5,154.5C 1299.16,126.48 1298.49,98.8132 1296.5,71.5 Z"/></g>
<g><path style="opacity:0.999" fill="#fbfbfb" d="M 1296.5,71.5 C 1298.49,98.8132 1299.16,126.48 1298.5,154.5C 1255.11,164.58 1211.44,173.913 1167.5,182.5C 1166.5,209.328 1166.17,236.328 1166.5,263.5C 1168.41,263.784 1170.08,263.451 1171.5,262.5C 1212.05,254.991 1252.71,247.991 1293.5,241.5C 1295.17,241.5 1296.83,241.5 1298.5,241.5C 1298.5,268.167 1298.5,294.833 1298.5,321.5C 1296.9,321.232 1295.57,321.566 1294.5,322.5C 1252.29,330.368 1209.96,337.701 1167.5,344.5C 1166.5,368.994 1166.17,393.661 1166.5,418.5C 1167.79,418.737 1168.79,418.404 1169.5,417.5C 1211.71,409.632 1254.04,402.298 1296.5,395.5C 1298.49,420.144 1299.16,445.144 1298.5,470.5C 1297.21,470.263 1296.21,470.596 1295.5,471.5C 1226.94,486.545 1158.27,501.212 1089.5,515.5C 1087.5,383.171 1086.84,250.504 1087.5,117.5C 1156.94,101.676 1226.61,86.3429 1296.5,71.5 Z"/></g>
<g><path style="opacity:0.236" fill="#000000" d="M 1587.5,71.5 C 1589.03,71.427 1590.03,72.0937 1590.5,73.5C 1588.97,73.573 1587.97,72.9063 1587.5,71.5 Z"/></g>
<g><path style="opacity:0.268" fill="#000000" d="M 1596.5,77.5 C 1598.03,77.427 1599.03,78.0937 1599.5,79.5C 1597.97,79.573 1596.97,78.9063 1596.5,77.5 Z"/></g>
<g><path style="opacity:0.203" fill="#000000" d="M 1599.5,79.5 C 1601.03,79.427 1602.03,80.0937 1602.5,81.5C 1600.97,81.573 1599.97,80.9063 1599.5,79.5 Z"/></g>
<g><path style="opacity:0.256" fill="#000000" d="M 1603.5,82.5 C 1605.03,82.427 1606.03,83.0937 1606.5,84.5C 1604.97,84.573 1603.97,83.9063 1603.5,82.5 Z"/></g>
<g><path style="opacity:0.998" fill="#fbfbfb" d="M 424.5,329.5 C 422.1,326.097 419.1,323.43 415.5,321.5C 408.5,315.167 401.833,308.5 395.5,301.5C 393.539,299.037 391.372,296.703 389,294.5C 388.283,295.044 387.783,295.711 387.5,296.5C 387.167,297.5 386.5,298.167 385.5,298.5C 384.094,298.973 383.427,299.973 383.5,301.5C 382.833,302.833 381.833,303.833 380.5,304.5C 379.094,304.973 378.427,305.973 378.5,307.5C 377.833,308.833 376.833,309.833 375.5,310.5C 374.094,310.973 373.427,311.973 373.5,313.5C 372.833,314.833 371.833,315.833 370.5,316.5C 369.094,316.973 368.427,317.973 368.5,319.5C 367.833,320.833 366.833,321.833 365.5,322.5C 364.094,322.973 363.427,323.973 363.5,325.5C 362.833,326.833 361.833,327.833 360.5,328.5C 358.738,329.262 357.738,330.596 357.5,332.5C 357.167,333.5 356.5,334.167 355.5,334.5C 353.738,335.262 352.738,336.596 352.5,338.5C 352.167,339.5 351.5,340.167 350.5,340.5C 348.738,341.262 347.738,342.596 347.5,344.5C 346.833,345.833 345.833,346.833 344.5,347.5C 343.094,347.973 342.427,348.973 342.5,350.5C 341.833,351.833 340.833,352.833 339.5,353.5C 338.094,353.973 337.427,354.973 337.5,356.5C 336.833,357.833 335.833,358.833 334.5,359.5C 333.094,359.973 332.427,360.973 332.5,362.5C 331.833,363.833 330.833,364.833 329.5,365.5C 328.094,365.973 327.427,366.973 327.5,368.5C 326.833,369.833 325.833,370.833 324.5,371.5C 323.094,371.973 322.427,372.973 322.5,374.5C 321.833,375.833 320.833,376.833 319.5,377.5C 318.094,377.973 317.427,378.973 317.5,380.5C 316.833,381.833 315.833,382.833 314.5,383.5C 311.116,385.703 311.116,387.37 314.5,388.5C 321.5,394.833 328.167,401.5 334.5,408.5C 336.9,411.903 339.9,414.57 343.5,416.5C 350.5,422.833 357.167,429.5 363.5,436.5C 365.9,439.903 368.9,442.57 372.5,444.5C 379.167,450.5 385.5,456.833 391.5,463.5C 393.9,466.903 396.9,469.57 400.5,471.5C 407.5,477.833 414.167,484.5 420.5,491.5C 422.9,494.903 425.9,497.57 429.5,499.5C 434.167,503.5 438.5,507.833 442.5,512.5C 443.164,612.506 442.498,712.172 440.5,811.5C 440.027,810.094 439.027,809.427 437.5,809.5C 435.566,808.89 433.899,807.89 432.5,806.5C 432.027,805.094 431.027,804.427 429.5,804.5C 425.827,803 422.494,801 419.5,798.5C 419.027,797.094 418.027,796.427 416.5,796.5C 414.566,795.89 412.899,794.89 411.5,793.5C 411.027,792.094 410.027,791.427 408.5,791.5C 406.566,790.89 404.899,789.89 403.5,788.5C 403.027,787.094 402.027,786.427 400.5,786.5C 398.566,785.89 396.899,784.89 395.5,783.5C 395.027,782.094 394.027,781.427 392.5,781.5C 390.566,780.89 388.899,779.89 387.5,778.5C 387.027,777.094 386.027,776.427 384.5,776.5C 382.566,775.89 380.899,774.89 379.5,773.5C 379.027,772.094 378.027,771.427 376.5,771.5C 374.566,770.89 372.899,769.89 371.5,768.5C 371.027,767.094 370.027,766.427 368.5,766.5C 364.827,765 361.494,763 358.5,760.5C 358.027,759.094 357.027,758.427 355.5,758.5C 353.566,757.89 351.899,756.89 350.5,755.5C 350.027,754.094 349.027,753.427 347.5,753.5C 345.566,752.89 343.899,751.89 342.5,750.5C 342.027,749.094 341.027,748.427 339.5,748.5C 337.566,747.89 335.899,746.89 334.5,745.5C 334.027,744.094 333.027,743.427 331.5,743.5C 329.566,742.89 327.899,741.89 326.5,740.5C 326.027,739.094 325.027,738.427 323.5,738.5C 321.566,737.89 319.899,736.89 318.5,735.5C 318.027,734.094 317.027,733.427 315.5,733.5C 313.566,732.89 311.899,731.89 310.5,730.5C 310.027,729.094 309.027,728.427 307.5,728.5C 306.508,728.672 305.842,728.338 305.5,727.5C 305.027,726.094 304.027,725.427 302.5,725.5C 300.566,724.89 298.899,723.89 297.5,722.5C 297.027,721.094 296.027,720.427 294.5,720.5C 292.566,719.89 290.899,718.89 289.5,717.5C 289.027,716.094 288.027,715.427 286.5,715.5C 284.566,714.89 282.899,713.89 281.5,712.5C 281.027,711.094 280.027,710.427 278.5,710.5C 276.566,709.89 274.899,708.89 273.5,707.5C 273.027,706.094 272.027,705.427 270.5,705.5C 268.566,704.89 266.899,703.89 265.5,702.5C 265.027,701.094 264.027,700.427 262.5,700.5C 260.566,699.89 258.899,698.89 257.5,697.5C 257.027,696.094 256.027,695.427 254.5,695.5C 250.827,694 247.494,692 244.5,689.5C 244.027,688.094 243.027,687.427 241.5,687.5C 239.566,686.89 237.899,685.89 236.5,684.5C 236.027,683.094 235.027,682.427 233.5,682.5C 231.566,681.89 229.899,680.89 228.5,679.5C 228.027,678.094 227.027,677.427 225.5,677.5C 223.566,676.89 221.899,675.89 220.5,674.5C 220.027,673.094 219.027,672.427 217.5,672.5C 215.566,671.89 213.899,670.89 212.5,669.5C 212.027,668.094 211.027,667.427 209.5,667.5C 207.566,666.89 205.899,665.89 204.5,664.5C 204.027,663.094 203.027,662.427 201.5,662.5C 199.566,661.89 197.899,660.89 196.5,659.5C 196.027,658.094 195.027,657.427 193.5,657.5C 192.508,657.672 191.842,657.338 191.5,656.5C 191.027,655.094 190.027,654.427 188.5,654.5C 186.566,653.89 184.899,652.89 183.5,651.5C 183.027,650.094 182.027,649.427 180.5,649.5C 178.566,648.89 176.899,647.89 175.5,646.5C 175.027,645.094 174.027,644.427 172.5,644.5C 170.566,643.89 168.899,642.89 167.5,641.5C 167.027,640.094 166.027,639.427 164.5,639.5C 162.566,638.89 160.899,637.89 159.5,636.5C 159.027,635.094 158.027,634.427 156.5,634.5C 154.566,633.89 152.899,632.89 151.5,631.5C 151.027,630.094 150.027,629.427 148.5,629.5C 146.566,628.89 144.899,627.89 143.5,626.5C 143.027,625.094 142.027,624.427 140.5,624.5C 138.566,623.89 136.899,622.89 135.5,621.5C 135.027,620.094 134.027,619.427 132.5,619.5C 131.508,619.672 130.842,619.338 130.5,618.5C 130.027,617.094 129.027,616.427 127.5,616.5C 125.566,615.89 123.899,614.89 122.5,613.5C 122.027,612.094 121.027,611.427 119.5,611.5C 117.566,610.89 115.899,609.89 114.5,608.5C 114.027,607.094 113.027,606.427 111.5,606.5C 109.566,605.89 107.899,604.89 106.5,603.5C 106.027,602.094 105.027,601.427 103.5,601.5C 101.566,600.89 99.8993,599.89 98.5,598.5C 98.0269,597.094 97.0269,596.427 95.5,596.5C 93.5659,595.89 91.8993,594.89 90.5,593.5C 90.0269,592.094 89.0269,591.427 87.5,591.5C 85.5659,590.89 83.8993,589.89 82.5,588.5C 82.0269,587.094 81.0269,586.427 79.5,586.5C 78.5084,586.672 77.8417,586.338 77.5,585.5C 77.0269,584.094 76.0269,583.427 74.5,583.5C 72.5659,582.89 70.8993,581.89 69.5,580.5C 69.0269,579.094 68.0269,578.427 66.5,578.5C 64.5659,577.89 62.8993,576.89 61.5,575.5C 61.0269,574.094 60.0269,573.427 58.5,573.5C 56.5659,572.89 54.8993,571.89 53.5,570.5C 53.0269,569.094 52.0269,568.427 50.5,568.5C 48.5659,567.89 46.8993,566.89 45.5,565.5C 45.0269,564.094 44.0269,563.427 42.5,563.5C 42.3284,562.508 42.6618,561.842 43.5,561.5C 44.9063,561.027 45.573,560.027 45.5,558.5C 46.1667,557.167 47.1667,556.167 48.5,555.5C 49.9063,555.027 50.573,554.027 50.5,552.5C 51.1667,551.167 52.1667,550.167 53.5,549.5C 54.9063,549.027 55.573,548.027 55.5,546.5C 56.1667,545.167 57.1667,544.167 58.5,543.5C 59.9063,543.027 60.573,542.027 60.5,540.5C 61.1667,539.167 62.1667,538.167 63.5,537.5C 64.9063,537.027 65.573,536.027 65.5,534.5C 66.1667,533.167 67.1667,532.167 68.5,531.5C 69.9063,531.027 70.573,530.027 70.5,528.5C 71.1667,527.167 72.1667,526.167 73.5,525.5C 74.9063,525.027 75.573,524.027 75.5,522.5C 76.1667,521.167 77.1667,520.167 78.5,519.5C 79.9063,519.027 80.573,518.027 80.5,516.5C 81.1667,515.167 82.1667,514.167 83.5,513.5C 85.2624,512.738 86.2624,511.404 86.5,509.5C 86.8333,508.5 87.5,507.833 88.5,507.5C 90.2624,506.738 91.2624,505.404 91.5,503.5C 92.1667,502.167 93.1667,501.167 94.5,500.5C 95.9063,500.027 96.573,499.027 96.5,497.5C 97.1667,496.167 98.1667,495.167 99.5,494.5C 100.906,494.027 101.573,493.027 101.5,491.5C 102.167,490.167 103.167,489.167 104.5,488.5C 105.906,488.027 106.573,487.027 106.5,485.5C 107.167,484.167 108.167,483.167 109.5,482.5C 110.906,482.027 111.573,481.027 111.5,479.5C 112.167,478.167 113.167,477.167 114.5,476.5C 115.906,476.027 116.573,475.027 116.5,473.5C 117.167,472.167 118.167,471.167 119.5,470.5C 120.906,470.027 121.573,469.027 121.5,467.5C 122.167,466.167 123.167,465.167 124.5,464.5C 126.262,463.738 127.262,462.404 127.5,460.5C 127.833,459.5 128.5,458.833 129.5,458.5C 131.262,457.738 132.262,456.404 132.5,454.5C 132.833,453.5 133.5,452.833 134.5,452.5C 136.262,451.738 137.262,450.404 137.5,448.5C 138.167,447.167 139.167,446.167 140.5,445.5C 141.906,445.027 142.573,444.027 142.5,442.5C 144.23,441.088 145.73,441.422 147,443.5C 160.667,475.5 174.333,507.5 188,539.5C 189.021,542.35 190.854,544.35 193.5,545.5C 193.973,546.906 194.973,547.573 196.5,547.5C 204.161,550.995 211.495,554.995 218.5,559.5C 218.973,560.906 219.973,561.573 221.5,561.5C 229.161,564.995 236.495,568.995 243.5,573.5C 243.973,574.906 244.973,575.573 246.5,575.5C 248.819,575.992 250.819,576.992 252.5,578.5C 252.973,579.906 253.973,580.573 255.5,580.5C 263.161,583.995 270.495,587.995 277.5,592.5C 277.973,593.906 278.973,594.573 280.5,594.5C 282.819,594.992 284.819,595.992 286.5,597.5C 286.973,598.906 287.973,599.573 289.5,599.5C 297.161,602.995 304.495,606.995 311.5,611.5C 311.973,612.906 312.973,613.573 314.5,613.5C 316.819,613.992 318.819,614.992 320.5,616.5C 320.973,617.906 321.973,618.573 323.5,618.5C 331.161,621.995 338.495,625.995 345.5,630.5C 345.973,631.906 346.973,632.573 348.5,632.5C 350.819,632.992 352.819,633.992 354.5,635.5C 354.973,636.906 355.973,637.573 357.5,637.5C 359.258,637.877 360.925,638.544 362.5,639.5C 363.824,609.1 363.824,578.767 362.5,548.5C 361.415,546.413 359.749,545.08 357.5,544.5C 354.5,542.167 351.833,539.5 349.5,536.5C 348.738,534.738 347.404,533.738 345.5,533.5C 342.5,531.167 339.833,528.5 337.5,525.5C 336.738,523.738 335.404,522.738 333.5,522.5C 330.5,520.167 327.833,517.5 325.5,514.5C 324.738,512.738 323.404,511.738 321.5,511.5C 318.5,509.167 315.833,506.5 313.5,503.5C 312.738,501.738 311.404,500.738 309.5,500.5C 306.5,498.167 303.833,495.5 301.5,492.5C 300.415,490.413 298.749,489.08 296.5,488.5C 293.833,486.5 291.5,484.167 289.5,481.5C 288.415,479.413 286.749,478.08 284.5,477.5C 281.833,475.5 279.5,473.167 277.5,470.5C 276.415,468.413 274.749,467.08 272.5,466.5C 269.833,464.5 267.5,462.167 265.5,459.5C 264.415,457.413 262.749,456.08 260.5,455.5C 255.833,451.5 251.5,447.167 247.5,442.5C 245.1,439.097 242.1,436.43 238.5,434.5C 231.833,428.5 225.5,422.167 219.5,415.5C 217.1,412.097 214.1,409.43 210.5,407.5C 203.869,401.369 197.369,395.036 191,388.5C 190.235,386.934 190.402,385.601 191.5,384.5C 192.906,384.027 193.573,383.027 193.5,381.5C 194.167,380.167 195.167,379.167 196.5,378.5C 197.906,378.027 198.573,377.027 198.5,375.5C 199.167,374.167 200.167,373.167 201.5,372.5C 202.906,372.027 203.573,371.027 203.5,369.5C 204.167,368.167 205.167,367.167 206.5,366.5C 207.906,366.027 208.573,365.027 208.5,363.5C 209.167,362.167 210.167,361.167 211.5,360.5C 212.906,360.027 213.573,359.027 213.5,357.5C 214.167,356.167 215.167,355.167 216.5,354.5C 217.906,354.027 218.573,353.027 218.5,351.5C 219.167,350.167 220.167,349.167 221.5,348.5C 222.906,348.027 223.573,347.027 223.5,345.5C 224.167,344.167 225.167,343.167 226.5,342.5C 228.262,341.738 229.262,340.404 229.5,338.5C 229.833,337.5 230.5,336.833 231.5,336.5C 233.262,335.738 234.262,334.404 234.5,332.5C 235.167,331.167 236.167,330.167 237.5,329.5C 238.906,329.027 239.573,328.027 239.5,326.5C 240.167,325.167 241.167,324.167 242.5,323.5C 243.906,323.027 244.573,322.027 244.5,320.5C 245.167,319.167 246.167,318.167 247.5,317.5C 248.906,317.027 249.573,316.027 249.5,314.5C 250.167,313.167 251.167,312.167 252.5,311.5C 253.906,311.027 254.573,310.027 254.5,308.5C 255.167,307.167 256.167,306.167 257.5,305.5C 258.906,305.027 259.573,304.027 259.5,302.5C 260.167,301.167 261.167,300.167 262.5,299.5C 263.906,299.027 264.573,298.027 264.5,296.5C 265.167,295.167 266.167,294.167 267.5,293.5C 268.906,293.027 269.573,292.027 269.5,290.5C 270.167,289.167 271.167,288.167 272.5,287.5C 274.262,286.738 275.262,285.404 275.5,283.5C 275.833,282.5 276.5,281.833 277.5,281.5C 279.262,280.738 280.262,279.404 280.5,277.5C 281.167,276.167 282.167,275.167 283.5,274.5C 284.906,274.027 285.573,273.027 285.5,271.5C 286.167,270.167 287.167,269.167 288.5,268.5C 289.906,268.027 290.573,267.027 290.5,265.5C 291.167,264.167 292.167,263.167 293.5,262.5C 294.906,262.027 295.573,261.027 295.5,259.5C 296.167,258.167 297.167,257.167 298.5,256.5C 299.906,256.027 300.573,255.027 300.5,253.5C 301.167,252.167 302.167,251.167 303.5,250.5C 304.906,250.027 305.573,249.027 305.5,247.5C 306.167,246.167 307.167,245.167 308.5,244.5C 309.906,244.027 310.573,243.027 310.5,241.5C 311.167,240.167 312.167,239.167 313.5,238.5C 314.906,238.027 315.573,237.027 315.5,235.5C 316.167,234.167 317.167,233.167 318.5,232.5C 320.262,231.738 321.262,230.404 321.5,228.5C 321.833,227.5 322.5,226.833 323.5,226.5C 325.262,225.738 326.262,224.404 326.5,222.5C 326.833,221.5 327.5,220.833 328.5,220.5C 330.262,219.738 331.262,218.404 331.5,216.5C 332.167,215.167 333.167,214.167 334.5,213.5C 335.906,213.027 336.573,212.027 336.5,210.5C 337.167,209.167 338.167,208.167 339.5,207.5C 340.906,207.027 341.573,206.027 341.5,204.5C 342.167,203.167 343.167,202.167 344.5,201.5C 345.906,201.027 346.573,200.027 346.5,198.5C 347.167,197.167 348.167,196.167 349.5,195.5C 350.906,195.027 351.573,194.027 351.5,192.5C 352.167,191.167 353.167,190.167 354.5,189.5C 355.906,189.027 356.573,188.027 356.5,186.5C 357.167,185.167 358.167,184.167 359.5,183.5C 360.906,183.027 361.573,182.027 361.5,180.5C 362.167,179.167 363.167,178.167 364.5,177.5C 365.906,177.027 366.573,176.027 366.5,174.5C 367.167,173.167 368.167,172.167 369.5,171.5C 371.262,170.738 372.262,169.404 372.5,167.5C 372.833,166.5 373.5,165.833 374.5,165.5C 376.262,164.738 377.262,163.404 377.5,161.5C 378.167,160.167 379.167,159.167 380.5,158.5C 381.906,158.027 382.573,157.027 382.5,155.5C 383.167,154.167 384.167,153.167 385.5,152.5C 386.906,152.027 387.573,151.027 387.5,149.5C 388.167,148.167 389.167,147.167 390.5,146.5C 391.906,146.027 392.573,145.027 392.5,143.5C 393.167,142.167 394.167,141.167 395.5,140.5C 396.906,140.027 397.573,139.027 397.5,137.5C 398.167,136.167 399.167,135.167 400.5,134.5C 401.906,134.027 402.573,133.027 402.5,131.5C 403.167,130.167 404.167,129.167 405.5,128.5C 406.906,128.027 407.573,127.027 407.5,125.5C 408.167,124.167 409.167,123.167 410.5,122.5C 411.906,122.027 412.573,121.027 412.5,119.5C 413.167,118.167 414.167,117.167 415.5,116.5C 417.262,115.738 418.262,114.404 418.5,112.5C 418.833,111.5 419.5,110.833 420.5,110.5C 422.262,109.738 423.262,108.404 423.5,106.5C 423.833,105.5 424.5,104.833 425.5,104.5C 427.262,103.738 428.262,102.404 428.5,100.5C 429.167,99.1667 430.167,98.1667 431.5,97.5C 432.906,97.0269 433.573,96.0269 433.5,94.5C 434.167,93.1667 435.167,92.1667 436.5,91.5C 437.906,91.0269 438.573,90.0269 438.5,88.5C 439.401,86.2729 441.067,85.2729 443.5,85.5C 443.5,172.5 443.5,259.5 443.5,346.5C 442.448,346.649 441.448,346.483 440.5,346C 434.964,340.631 429.63,335.131 424.5,329.5 Z"/></g>
<g><path style="opacity:0.223" fill="#000000" d="M 1607.5,85.5 C 1609.03,85.427 1610.03,86.0937 1610.5,87.5C 1608.97,87.573 1607.97,86.9063 1607.5,85.5 Z"/></g>
<g><path style="opacity:0.252" fill="#000000" d="M 438.5,88.5 C 438.573,90.0269 437.906,91.0269 436.5,91.5C 436.427,89.9731 437.094,88.9731 438.5,88.5 Z"/></g>
<g><path style="opacity:0.22" fill="#000000" d="M 1612.5,89.5 C 1614.03,89.427 1615.03,90.0937 1615.5,91.5C 1613.97,91.573 1612.97,90.9063 1612.5,89.5 Z"/></g>
<g><path style="opacity:0.252" fill="#000000" d="M 433.5,94.5 C 433.573,96.0269 432.906,97.0269 431.5,97.5C 431.427,95.9731 432.094,94.9731 433.5,94.5 Z"/></g>
<g><path style="opacity:0.2" fill="#000000" d="M 1618.5,94.5 C 1620.4,94.7376 1621.74,95.7376 1622.5,97.5C 1620.6,97.2624 1619.26,96.2624 1618.5,94.5 Z"/></g>
<g><path style="opacity:0.212" fill="#000000" d="M 428.5,100.5 C 428.262,102.404 427.262,103.738 425.5,104.5C 425.738,102.596 426.738,101.262 428.5,100.5 Z"/></g>
<g><path style="opacity:0.22" fill="#000000" d="M 423.5,106.5 C 423.262,108.404 422.262,109.738 420.5,110.5C 420.738,108.596 421.738,107.262 423.5,106.5 Z"/></g>
<g><path style="opacity:0.22" fill="#000000" d="M 418.5,112.5 C 418.262,114.404 417.262,115.738 415.5,116.5C 415.738,114.596 416.738,113.262 418.5,112.5 Z"/></g>
<g><path style="opacity:0.242" fill="#000000" d="M 1639.5,114.5 C 1641.26,115.262 1642.26,116.596 1642.5,118.5C 1640.74,117.738 1639.74,116.404 1639.5,114.5 Z"/></g>
<g><path style="opacity:0.031" fill="#000000" d="M 1087.5,117.5 C 1086.84,250.504 1087.5,383.171 1089.5,515.5C 1088.79,516.404 1087.79,516.737 1086.5,516.5C 1086.17,383.332 1086.5,250.332 1087.5,117.5 Z"/></g>
<g><path style="opacity:0.192" fill="#000000" d="M 412.5,119.5 C 412.573,121.027 411.906,122.027 410.5,122.5C 410.427,120.973 411.094,119.973 412.5,119.5 Z"/></g>
<g><path style="opacity:0.282" fill="#000000" d="M 1456.5,120.5 C 1455.51,149.093 1455.18,177.76 1455.5,206.5C 1456.83,206.5 1458.17,206.5 1459.5,206.5C 1458.08,207.451 1456.41,207.784 1454.5,207.5C 1453.84,178.147 1454.51,149.147 1456.5,120.5 Z"/></g>
<g><path style="opacity:0.22" fill="#000000" d="M 1645.5,121.5 C 1647.26,122.262 1648.26,123.596 1648.5,125.5C 1646.74,124.738 1645.74,123.404 1645.5,121.5 Z"/></g>
<g><path style="opacity:0.19" fill="#000000" d="M 407.5,125.5 C 407.573,127.027 406.906,128.027 405.5,128.5C 405.427,126.973 406.094,125.973 407.5,125.5 Z"/></g>
<g><path style="opacity:0.221" fill="#000000" d="M 1648.5,125.5 C 1649.91,125.973 1650.57,126.973 1650.5,128.5C 1649.09,128.027 1648.43,127.027 1648.5,125.5 Z"/></g>
<g><path style="opacity:0.22" fill="#000000" d="M 402.5,131.5 C 402.573,133.027 401.906,134.027 400.5,134.5C 400.427,132.973 401.094,131.973 402.5,131.5 Z"/></g>
<g><path style="opacity:0.222" fill="#000000" d="M 397.5,137.5 C 397.573,139.027 396.906,140.027 395.5,140.5C 395.427,138.973 396.094,137.973 397.5,137.5 Z"/></g>
<g><path style="opacity:0.235" fill="#000000" d="M 392.5,143.5 C 392.573,145.027 391.906,146.027 390.5,146.5C 390.427,144.973 391.094,143.973 392.5,143.5 Z"/></g>
<g><path style="opacity:0.252" fill="#000000" d="M 387.5,149.5 C 387.573,151.027 386.906,152.027 385.5,152.5C 385.427,150.973 386.094,149.973 387.5,149.5 Z"/></g>
<g><path style="opacity:0.035" fill="#000000" d="M 913.5,155.5 C 914.568,154.566 915.901,154.232 917.5,154.5C 917.5,256.833 917.5,359.167 917.5,461.5C 918.833,461.5 920.167,461.5 921.5,461.5C 920.081,462.451 918.415,462.784 916.5,462.5C 916.5,360.167 916.5,257.833 916.5,155.5C 915.5,155.5 914.5,155.5 913.5,155.5 Z"/></g>
<g><path style="opacity:0.252" fill="#000000" d="M 382.5,155.5 C 382.573,157.027 381.906,158.027 380.5,158.5C 380.427,156.973 381.094,155.973 382.5,155.5 Z"/></g>
<g><path style="opacity:0.999" fill="#fcfcfc" d="M 913.5,155.5 C 914.5,155.5 915.5,155.5 916.5,155.5C 916.5,257.833 916.5,360.167 916.5,462.5C 918.415,462.784 920.081,462.451 921.5,461.5C 952.376,455.632 983.376,450.298 1014.5,445.5C 1016.49,473.814 1017.16,502.481 1016.5,531.5C 957.023,545.285 897.356,558.285 837.5,570.5C 837.5,437.833 837.5,305.167 837.5,172.5C 838.791,172.737 839.791,172.404 840.5,171.5C 864.696,165.66 889.029,160.327 913.5,155.5 Z"/></g>
<g><path style="opacity:0.222" fill="#000000" d="M 377.5,161.5 C 377.262,163.404 376.262,164.738 374.5,165.5C 374.738,163.596 375.738,162.262 377.5,161.5 Z"/></g>
<g><path style="opacity:0.222" fill="#000000" d="M 372.5,167.5 C 372.262,169.404 371.262,170.738 369.5,171.5C 369.738,169.596 370.738,168.262 372.5,167.5 Z"/></g>
<g><path style="opacity:0.282" fill="#000000" d="M 840.5,171.5 C 839.791,172.404 838.791,172.737 837.5,172.5C 837.5,305.167 837.5,437.833 837.5,570.5C 836.5,437.668 836.167,304.668 836.5,171.5C 837.833,171.5 839.167,171.5 840.5,171.5 Z"/></g>
<g><path style="opacity:0.19" fill="#000000" d="M 366.5,174.5 C 366.573,176.027 365.906,177.027 364.5,177.5C 364.427,175.973 365.094,174.973 366.5,174.5 Z"/></g>
<g><path style="opacity:0.19" fill="#000000" d="M 361.5,180.5 C 361.573,182.027 360.906,183.027 359.5,183.5C 359.427,181.973 360.094,180.973 361.5,180.5 Z"/></g>
<g><path style="opacity:0.28" fill="#000000" d="M 1167.5,182.5 C 1167.5,209.167 1167.5,235.833 1167.5,262.5C 1168.83,262.5 1170.17,262.5 1171.5,262.5C 1170.08,263.451 1168.41,263.784 1166.5,263.5C 1166.17,236.328 1166.5,209.328 1167.5,182.5 Z"/></g>
<g><path style="opacity:0.204" fill="#000000" d="M 356.5,186.5 C 356.573,188.027 355.906,189.027 354.5,189.5C 354.427,187.973 355.094,186.973 356.5,186.5 Z"/></g>
<g><path style="opacity:0.063" fill="#000000" d="M 763.5,188.5 C 764.209,187.596 765.209,187.263 766.5,187.5C 766.833,320.668 766.5,453.668 765.5,586.5C 766.165,453.496 765.498,320.829 763.5,188.5 Z"/></g>
<g><path style="opacity:1" fill="#fcfcfc" d="M 763.5,188.5 C 765.498,320.829 766.165,453.496 765.5,586.5C 740.019,592.596 714.353,597.93 688.5,602.5C 686.507,569.85 685.84,536.85 686.5,503.5C 684.585,503.216 682.919,503.549 681.5,504.5C 652.626,510.035 623.626,515.035 594.5,519.5C 594.5,553.833 594.5,588.167 594.5,622.5C 569.528,627.66 544.528,632.66 519.5,637.5C 518.167,637.5 516.833,637.5 515.5,637.5C 515.169,505.763 515.502,374.097 516.5,242.5C 598.7,223.993 681.033,205.993 763.5,188.5 Z M 683.5,286.5 C 685.495,331.488 686.162,376.821 685.5,422.5C 655.148,427.392 624.815,432.392 594.5,437.5C 594.5,393.5 594.5,349.5 594.5,305.5C 624.415,299.785 654.082,293.452 683.5,286.5 Z"/></g>
<g><path style="opacity:0.222" fill="#000000" d="M 351.5,192.5 C 351.573,194.027 350.906,195.027 349.5,195.5C 349.427,193.973 350.094,192.973 351.5,192.5 Z"/></g>
<g><path style="opacity:0.22" fill="#000000" d="M 346.5,198.5 C 346.573,200.027 345.906,201.027 344.5,201.5C 344.427,199.973 345.094,198.973 346.5,198.5 Z"/></g>
<g><path style="opacity:0.254" fill="#000000" d="M 341.5,204.5 C 341.573,206.027 340.906,207.027 339.5,207.5C 339.427,205.973 340.094,204.973 341.5,204.5 Z"/></g>
<g><path style="opacity:0.254" fill="#000000" d="M 336.5,210.5 C 336.573,212.027 335.906,213.027 334.5,213.5C 334.427,211.973 335.094,210.973 336.5,210.5 Z"/></g>
<g><path style="opacity:0.21" fill="#000000" d="M 331.5,216.5 C 331.262,218.404 330.262,219.738 328.5,220.5C 328.738,218.596 329.738,217.262 331.5,216.5 Z"/></g>
<g><path style="opacity:0.222" fill="#000000" d="M 326.5,222.5 C 326.262,224.404 325.262,225.738 323.5,226.5C 323.738,224.596 324.738,223.262 326.5,222.5 Z"/></g>
<g><path style="opacity:0.22" fill="#000000" d="M 321.5,228.5 C 321.262,230.404 320.262,231.738 318.5,232.5C 318.738,230.596 319.738,229.262 321.5,228.5 Z"/></g>
<g><path style="opacity:0.19" fill="#000000" d="M 315.5,235.5 C 315.573,237.027 314.906,238.027 313.5,238.5C 313.427,236.973 314.094,235.973 315.5,235.5 Z"/></g>
<g><path style="opacity:0.504" fill="#000000" d="M 1293.5,241.5 C 1295.26,240.539 1297.26,240.205 1299.5,240.5C 1299.5,267.833 1299.5,295.167 1299.5,322.5C 1297.83,322.5 1296.17,322.5 1294.5,322.5C 1295.57,321.566 1296.9,321.232 1298.5,321.5C 1298.5,294.833 1298.5,268.167 1298.5,241.5C 1296.83,241.5 1295.17,241.5 1293.5,241.5 Z"/></g>
<g><path style="opacity:0.19" fill="#000000" d="M 310.5,241.5 C 310.573,243.027 309.906,244.027 308.5,244.5C 308.427,242.973 309.094,241.973 310.5,241.5 Z"/></g>
<g><path style="opacity:0.78" fill="#000000" d="M 516.5,242.5 C 515.502,374.097 515.169,505.763 515.5,637.5C 516.833,637.5 518.167,637.5 519.5,637.5C 518.081,638.451 516.415,638.784 514.5,638.5C 513.835,506.162 514.502,374.162 516.5,242.5 Z"/></g>
<g><path style="opacity:0.222" fill="#000000" d="M 305.5,247.5 C 305.573,249.027 304.906,250.027 303.5,250.5C 303.427,248.973 304.094,247.973 305.5,247.5 Z"/></g>
<g><path style="opacity:0.22" fill="#000000" d="M 300.5,253.5 C 300.573,255.027 299.906,256.027 298.5,256.5C 298.427,254.973 299.094,253.973 300.5,253.5 Z"/></g>
<g><path style="opacity:0.22" fill="#000000" d="M 295.5,259.5 C 295.573,261.027 294.906,262.027 293.5,262.5C 293.427,260.973 294.094,259.973 295.5,259.5 Z"/></g>
<g><path style="opacity:0.252" fill="#000000" d="M 290.5,265.5 C 290.573,267.027 289.906,268.027 288.5,268.5C 288.427,266.973 289.094,265.973 290.5,265.5 Z"/></g>
<g><path style="opacity:0.254" fill="#000000" d="M 285.5,271.5 C 285.573,273.027 284.906,274.027 283.5,274.5C 283.427,272.973 284.094,271.973 285.5,271.5 Z"/></g>
<g><path style="opacity:0.222" fill="#000000" d="M 280.5,277.5 C 280.262,279.404 279.262,280.738 277.5,281.5C 277.738,279.596 278.738,278.262 280.5,277.5 Z"/></g>
<g><path style="opacity:0.22" fill="#000000" d="M 275.5,283.5 C 275.262,285.404 274.262,286.738 272.5,287.5C 272.738,285.596 273.738,284.262 275.5,283.5 Z"/></g>
<g><path style="opacity:0.192" fill="#000000" d="M 269.5,290.5 C 269.573,292.027 268.906,293.027 267.5,293.5C 267.427,291.973 268.094,290.973 269.5,290.5 Z"/></g>
<g><path style="opacity:0.215" fill="#000000" d="M 395.5,301.5 C 392.833,299.833 390.167,298.167 387.5,296.5C 387.783,295.711 388.283,295.044 389,294.5C 391.372,296.703 393.539,299.037 395.5,301.5 Z"/></g>
<g><path style="opacity:0.188" fill="#000000" d="M 264.5,296.5 C 264.573,298.027 263.906,299.027 262.5,299.5C 262.427,297.973 263.094,296.973 264.5,296.5 Z"/></g>
<g><path style="opacity:0.239" fill="#000000" d="M 385.5,298.5 C 385.573,300.027 384.906,301.027 383.5,301.5C 383.427,299.973 384.094,298.973 385.5,298.5 Z"/></g>
<g><path style="opacity:0.188" fill="#000000" d="M 259.5,302.5 C 259.573,304.027 258.906,305.027 257.5,305.5C 257.427,303.973 258.094,302.973 259.5,302.5 Z"/></g>
<g><path style="opacity:0.22" fill="#000000" d="M 380.5,304.5 C 380.573,306.027 379.906,307.027 378.5,307.5C 378.427,305.973 379.094,304.973 380.5,304.5 Z"/></g>
<g><path style="opacity:0.222" fill="#000000" d="M 254.5,308.5 C 254.573,310.027 253.906,311.027 252.5,311.5C 252.427,309.973 253.094,308.973 254.5,308.5 Z"/></g>
<g><path style="opacity:0.222" fill="#000000" d="M 375.5,310.5 C 375.573,312.027 374.906,313.027 373.5,313.5C 373.427,311.973 374.094,310.973 375.5,310.5 Z"/></g>
<g><path style="opacity:0.22" fill="#000000" d="M 249.5,314.5 C 249.573,316.027 248.906,317.027 247.5,317.5C 247.427,315.973 248.094,314.973 249.5,314.5 Z"/></g>
<g><path style="opacity:0.188" fill="#000000" d="M 370.5,316.5 C 370.573,318.027 369.906,319.027 368.5,319.5C 368.427,317.973 369.094,316.973 370.5,316.5 Z"/></g>
<g><path style="opacity:0.252" fill="#000000" d="M 244.5,320.5 C 244.573,322.027 243.906,323.027 242.5,323.5C 242.427,321.973 243.094,320.973 244.5,320.5 Z"/></g>
<g><path style="opacity:0.218" fill="#000000" d="M 415.5,321.5 C 419.1,323.43 422.1,326.097 424.5,329.5C 420.9,327.57 417.9,324.903 415.5,321.5 Z"/></g>
<g><path style="opacity:0.188" fill="#000000" d="M 365.5,322.5 C 365.573,324.027 364.906,325.027 363.5,325.5C 363.427,323.973 364.094,322.973 365.5,322.5 Z"/></g>
<g><path style="opacity:0.252" fill="#000000" d="M 239.5,326.5 C 239.573,328.027 238.906,329.027 237.5,329.5C 237.427,327.973 238.094,326.973 239.5,326.5 Z"/></g>
<g><path style="opacity:0.231" fill="#000000" d="M 360.5,328.5 C 360.262,330.404 359.262,331.738 357.5,332.5C 357.738,330.596 358.738,329.262 360.5,328.5 Z"/></g>
<g><path style="opacity:0.222" fill="#000000" d="M 234.5,332.5 C 234.262,334.404 233.262,335.738 231.5,336.5C 231.738,334.596 232.738,333.262 234.5,332.5 Z"/></g>
<g><path style="opacity:0.222" fill="#000000" d="M 355.5,334.5 C 355.262,336.404 354.262,337.738 352.5,338.5C 352.738,336.596 353.738,335.262 355.5,334.5 Z"/></g>
<g><path style="opacity:0.223" fill="#000000" d="M 229.5,338.5 C 229.262,340.404 228.262,341.738 226.5,342.5C 226.738,340.596 227.738,339.262 229.5,338.5 Z"/></g>
<g><path style="opacity:0.222" fill="#000000" d="M 350.5,340.5 C 350.262,342.404 349.262,343.738 347.5,344.5C 347.738,342.596 348.738,341.262 350.5,340.5 Z"/></g>
<g><path style="opacity:0.29" fill="#000000" d="M 1167.5,344.5 C 1166.84,369.19 1167.51,393.523 1169.5,417.5C 1168.79,418.404 1167.79,418.737 1166.5,418.5C 1166.17,393.661 1166.5,368.994 1167.5,344.5 Z"/></g>
<g><path style="opacity:0.19" fill="#000000" d="M 223.5,345.5 C 223.573,347.027 222.906,348.027 221.5,348.5C 221.427,346.973 222.094,345.973 223.5,345.5 Z"/></g>
<g><path style="opacity:0.254" fill="#000000" d="M 344.5,347.5 C 344.573,349.027 343.906,350.027 342.5,350.5C 342.427,348.973 343.094,347.973 344.5,347.5 Z"/></g>
<g><path style="opacity:0.188" fill="#000000" d="M 218.5,351.5 C 218.573,353.027 217.906,354.027 216.5,354.5C 216.427,352.973 217.094,351.973 218.5,351.5 Z"/></g>
<g><path style="opacity:0.254" fill="#000000" d="M 339.5,353.5 C 339.573,355.027 338.906,356.027 337.5,356.5C 337.427,354.973 338.094,353.973 339.5,353.5 Z"/></g>
<g><path style="opacity:0.206" fill="#000000" d="M 213.5,357.5 C 213.573,359.027 212.906,360.027 211.5,360.5C 211.427,358.973 212.094,357.973 213.5,357.5 Z"/></g>
<g><path style="opacity:0.235" fill="#000000" d="M 334.5,359.5 C 334.573,361.027 333.906,362.027 332.5,362.5C 332.427,360.973 333.094,359.973 334.5,359.5 Z"/></g>
<g><path style="opacity:0.22" fill="#000000" d="M 208.5,363.5 C 208.573,365.027 207.906,366.027 206.5,366.5C 206.427,364.973 207.094,363.973 208.5,363.5 Z"/></g>
<g><path style="opacity:0.222" fill="#000000" d="M 329.5,365.5 C 329.573,367.027 328.906,368.027 327.5,368.5C 327.427,366.973 328.094,365.973 329.5,365.5 Z"/></g>
<g><path style="opacity:0.235" fill="#000000" d="M 203.5,369.5 C 203.573,371.027 202.906,372.027 201.5,372.5C 201.427,370.973 202.094,369.973 203.5,369.5 Z"/></g>
<g><path style="opacity:0.22" fill="#000000" d="M 324.5,371.5 C 324.573,373.027 323.906,374.027 322.5,374.5C 322.427,372.973 323.094,371.973 324.5,371.5 Z"/></g>
<g><path style="opacity:0.254" fill="#000000" d="M 198.5,375.5 C 198.573,377.027 197.906,378.027 196.5,378.5C 196.427,376.973 197.094,375.973 198.5,375.5 Z"/></g>
<g><path style="opacity:0.038" fill="#000000" d="M 1375.5,376.5 C 1375.5,402.167 1375.5,427.833 1375.5,453.5C 1376.83,453.5 1378.17,453.5 1379.5,453.5C 1378.08,454.451 1376.41,454.784 1374.5,454.5C 1374.17,428.328 1374.5,402.328 1375.5,376.5 Z"/></g>
<g><path style="opacity:0.19" fill="#000000" d="M 319.5,377.5 C 319.573,379.027 318.906,380.027 317.5,380.5C 317.427,378.973 318.094,377.973 319.5,377.5 Z"/></g>
<g><path style="opacity:0.252" fill="#000000" d="M 193.5,381.5 C 193.573,383.027 192.906,384.027 191.5,384.5C 191.427,382.973 192.094,381.973 193.5,381.5 Z"/></g>
<g><path style="opacity:0.213" fill="#000000" d="M 314.5,383.5 C 313.438,385.234 313.438,386.901 314.5,388.5C 311.116,387.37 311.116,385.703 314.5,383.5 Z"/></g>
<g><path style="opacity:0.503" fill="#000000" d="M 1296.5,395.5 C 1297.21,394.596 1298.21,394.263 1299.5,394.5C 1299.5,420.167 1299.5,445.833 1299.5,471.5C 1298.17,471.5 1296.83,471.5 1295.5,471.5C 1296.21,470.596 1297.21,470.263 1298.5,470.5C 1299.16,445.144 1298.49,420.144 1296.5,395.5 Z"/></g>
<g><path style="opacity:0.208" fill="#000000" d="M 210.5,407.5 C 214.1,409.43 217.1,412.097 219.5,415.5C 215.9,413.57 212.9,410.903 210.5,407.5 Z"/></g>
<g><path style="opacity:0.224" fill="#000000" d="M 334.5,408.5 C 338.1,410.43 341.1,413.097 343.5,416.5C 339.9,414.57 336.9,411.903 334.5,408.5 Z"/></g>
<g><path style="opacity:0.997" fill="#fcfcfc" d="M 2055.5,454.5 C 2055.83,455.5 2056.5,456.167 2057.5,456.5C 2086.56,523.331 2115.22,590.331 2143.5,657.5C 2144.03,660.46 2144.7,660.793 2145.5,658.5C 2164.55,619.399 2183.88,580.399 2203.5,541.5C 2205.07,540.369 2206.74,540.202 2208.5,541C 2233.56,555.527 2258.56,570.027 2283.5,584.5C 2284.16,638.433 2284.83,692.433 2285.5,746.5C 2286.11,746.376 2286.44,746.043 2286.5,745.5C 2288.03,745.573 2289.03,744.906 2289.5,743.5C 2290.9,742.11 2292.57,741.11 2294.5,740.5C 2296.03,740.573 2297.03,739.906 2297.5,738.5C 2298.9,737.11 2300.57,736.11 2302.5,735.5C 2304.03,735.573 2305.03,734.906 2305.5,733.5C 2306.9,732.11 2308.57,731.11 2310.5,730.5C 2312.03,730.573 2313.03,729.906 2313.5,728.5C 2314.9,727.11 2316.57,726.11 2318.5,725.5C 2320.03,725.573 2321.03,724.906 2321.5,723.5C 2322.9,722.11 2324.57,721.11 2326.5,720.5C 2328.03,720.573 2329.03,719.906 2329.5,718.5C 2329.84,717.662 2330.51,717.328 2331.5,717.5C 2333.03,717.573 2334.03,716.906 2334.5,715.5C 2335.9,714.11 2337.57,713.11 2339.5,712.5C 2341.03,712.573 2342.03,711.906 2342.5,710.5C 2343.9,709.11 2345.57,708.11 2347.5,707.5C 2349.03,707.573 2350.03,706.906 2350.5,705.5C 2351.9,704.11 2353.57,703.11 2355.5,702.5C 2357.03,702.573 2358.03,701.906 2358.5,700.5C 2359.9,699.11 2361.57,698.11 2363.5,697.5C 2365.03,697.573 2366.03,696.906 2366.5,695.5C 2367.9,694.11 2369.57,693.11 2371.5,692.5C 2373.03,692.573 2374.03,691.906 2374.5,690.5C 2375.9,689.11 2377.57,688.11 2379.5,687.5C 2381.03,687.573 2382.03,686.906 2382.5,685.5C 2383.9,684.11 2385.57,683.11 2387.5,682.5C 2389.03,682.573 2390.03,681.906 2390.5,680.5C 2391.9,679.11 2393.57,678.11 2395.5,677.5C 2397.03,677.573 2398.03,676.906 2398.5,675.5C 2399.9,674.11 2401.57,673.11 2403.5,672.5C 2405.03,672.573 2406.03,671.906 2406.5,670.5C 2407.9,669.11 2409.57,668.11 2411.5,667.5C 2413.03,667.573 2414.03,666.906 2414.5,665.5C 2415.29,664.599 2416.29,663.932 2417.5,663.5C 2418.24,663.369 2418.91,663.536 2419.5,664C 2418.18,664.816 2417.51,665.983 2417.5,667.5C 2415.5,670.167 2413.17,672.5 2410.5,674.5C 2408.41,675.585 2407.08,677.251 2406.5,679.5C 2404.5,682.167 2402.17,684.5 2399.5,686.5C 2397.74,687.262 2396.74,688.596 2396.5,690.5C 2394.17,693.5 2391.5,696.167 2388.5,698.5C 2386.74,699.262 2385.74,700.596 2385.5,702.5C 2383.5,705.167 2381.17,707.5 2378.5,709.5C 2376.41,710.585 2375.08,712.251 2374.5,714.5C 2372.5,717.167 2370.17,719.5 2367.5,721.5C 2365.41,722.585 2364.08,724.251 2363.5,726.5C 2361.5,729.167 2359.17,731.5 2356.5,733.5C 2354.41,734.585 2353.08,736.251 2352.5,738.5C 2350.5,741.167 2348.17,743.5 2345.5,745.5C 2343.41,746.585 2342.08,748.251 2341.5,750.5C 2339.5,753.167 2337.17,755.5 2334.5,757.5C 2332.41,758.585 2331.08,760.251 2330.5,762.5C 2328.5,765.167 2326.17,767.5 2323.5,769.5C 2321.74,770.262 2320.74,771.596 2320.5,773.5C 2318.17,776.5 2315.5,779.167 2312.5,781.5C 2310.74,782.262 2309.74,783.596 2309.5,785.5C 2307.5,788.167 2305.17,790.5 2302.5,792.5C 2300.41,793.585 2299.08,795.251 2298.5,797.5C 2296.5,800.167 2294.17,802.5 2291.5,804.5C 2289.41,805.585 2288.08,807.251 2287.5,809.5C 2285.5,812.167 2283.17,814.5 2280.5,816.5C 2278.41,817.585 2277.08,819.251 2276.5,821.5C 2274.5,824.167 2272.17,826.5 2269.5,828.5C 2267.41,829.585 2266.08,831.251 2265.5,833.5C 2263.5,836.167 2261.17,838.5 2258.5,840.5C 2256.41,841.585 2255.08,843.251 2254.5,845.5C 2252.5,848.167 2250.17,850.5 2247.5,852.5C 2245.74,853.262 2244.74,854.596 2244.5,856.5C 2242.17,859.5 2239.5,862.167 2236.5,864.5C 2234.74,865.262 2233.74,866.596 2233.5,868.5C 2231.5,871.167 2229.17,873.5 2226.5,875.5C 2224.41,876.585 2223.08,878.251 2222.5,880.5C 2220.5,883.167 2218.17,885.5 2215.5,887.5C 2213.41,888.585 2212.08,890.251 2211.5,892.5C 2210.42,894.587 2208.75,895.92 2206.5,896.5C 2206.67,830.499 2206.5,764.499 2206,698.5C 2204.96,699.244 2204.46,700.244 2204.5,701.5C 2202.56,706.09 2200.23,710.423 2197.5,714.5C 2196.09,714.973 2195.43,715.973 2195.5,717.5C 2195.01,719.819 2194.01,721.819 2192.5,723.5C 2191.09,723.973 2190.43,724.973 2190.5,726.5C 2188.56,731.09 2186.23,735.423 2183.5,739.5C 2182.09,739.973 2181.43,740.973 2181.5,742.5C 2181.01,744.819 2180.01,746.819 2178.5,748.5C 2177.09,748.973 2176.43,749.973 2176.5,751.5C 2173,759.161 2169,766.495 2164.5,773.5C 2163.09,773.973 2162.43,774.973 2162.5,776.5C 2159,784.161 2155,791.495 2150.5,798.5C 2149.09,798.973 2148.43,799.973 2148.5,801.5C 2148.01,803.819 2147.01,805.819 2145.5,807.5C 2144.09,807.973 2143.43,808.973 2143.5,810.5C 2141.96,814.711 2139.96,818.711 2137.5,822.5C 2136.5,823.833 2135.5,823.833 2134.5,822.5C 2113.76,780.021 2092.76,737.688 2071.5,695.5C 2071.57,693.973 2070.91,692.973 2069.5,692.5C 2066.11,686.72 2062.94,680.72 2060,674.5C 2059.67,802.833 2059.33,931.167 2059,1059.5C 2056.96,1061.71 2054.8,1063.71 2052.5,1065.5C 2050.41,1066.58 2049.08,1068.25 2048.5,1070.5C 2046.5,1073.17 2044.17,1075.5 2041.5,1077.5C 2039.74,1078.26 2038.74,1079.6 2038.5,1081.5C 2036.17,1084.5 2033.5,1087.17 2030.5,1089.5C 2028.74,1090.26 2027.74,1091.6 2027.5,1093.5C 2025.5,1096.17 2023.17,1098.5 2020.5,1100.5C 2018.41,1101.58 2017.08,1103.25 2016.5,1105.5C 2014.5,1108.17 2012.17,1110.5 2009.5,1112.5C 2007.41,1113.58 2006.08,1115.25 2005.5,1117.5C 2003.5,1120.17 2001.17,1122.5 1998.5,1124.5C 1996.41,1125.58 1995.08,1127.25 1994.5,1129.5C 1992.5,1132.17 1990.17,1134.5 1987.5,1136.5C 1985.41,1137.58 1984.08,1139.25 1983.5,1141.5C 1982.71,1143.1 1981.38,1143.77 1979.5,1143.5C 1979.5,899.5 1979.5,655.5 1979.5,411.5C 2005.32,424.997 2030.66,439.33 2055.5,454.5 Z"/></g>
<g><path style="opacity:0.233" fill="#000000" d="M 238.5,434.5 C 242.1,436.43 245.1,439.097 247.5,442.5C 243.9,440.57 240.9,437.903 238.5,434.5 Z"/></g>
<g><path style="opacity:0.232" fill="#000000" d="M 363.5,436.5 C 367.1,438.43 370.1,441.097 372.5,444.5C 368.9,442.57 365.9,439.903 363.5,436.5 Z"/></g>
<g><path style="opacity:0.252" fill="#000000" d="M 142.5,442.5 C 142.573,444.027 141.906,445.027 140.5,445.5C 140.427,443.973 141.094,442.973 142.5,442.5 Z"/></g>
<g><path style="opacity:0.032" fill="#000000" d="M 1014.5,445.5 C 1015.21,444.596 1016.21,444.263 1017.5,444.5C 1017.83,473.671 1017.5,502.671 1016.5,531.5C 1017.16,502.481 1016.49,473.814 1014.5,445.5 Z"/></g>
<g><path style="opacity:0.22" fill="#000000" d="M 137.5,448.5 C 137.262,450.404 136.262,451.738 134.5,452.5C 134.738,450.596 135.738,449.262 137.5,448.5 Z"/></g>
<g><path style="opacity:0.221" fill="#000000" d="M 1643.5,452.5 C 1645.03,452.427 1646.03,453.094 1646.5,454.5C 1644.97,454.573 1643.97,453.906 1643.5,452.5 Z"/></g>
<g><path style="opacity:0.22" fill="#000000" d="M 132.5,454.5 C 132.262,456.404 131.262,457.738 129.5,458.5C 129.738,456.596 130.738,455.262 132.5,454.5 Z"/></g>
<g><path style="opacity:0.225" fill="#000000" d="M 1646.5,454.5 C 1648.03,454.427 1649.03,455.094 1649.5,456.5C 1647.97,456.573 1646.97,455.906 1646.5,454.5 Z"/></g>
<g><path style="opacity:0.199" fill="#000000" d="M 2055.5,454.5 C 2056.83,454.5 2057.5,455.167 2057.5,456.5C 2056.5,456.167 2055.83,455.5 2055.5,454.5 Z"/></g>
<g><path style="opacity:0.237" fill="#000000" d="M 260.5,455.5 C 262.749,456.08 264.415,457.413 265.5,459.5C 263.251,458.92 261.585,457.587 260.5,455.5 Z"/></g>
<g><path style="opacity:0.232" fill="#000000" d="M 127.5,460.5 C 127.262,462.404 126.262,463.738 124.5,464.5C 124.738,462.596 125.738,461.262 127.5,460.5 Z"/></g>
<g><path style="opacity:0.175" fill="#000000" d="M 1654.5,460.5 C 1656.03,460.427 1657.03,461.094 1657.5,462.5C 1655.97,462.573 1654.97,461.906 1654.5,460.5 Z"/></g>
<g><path style="opacity:0.209" fill="#000000" d="M 391.5,463.5 C 395.1,465.43 398.1,468.097 400.5,471.5C 396.9,469.57 393.9,466.903 391.5,463.5 Z"/></g>
<g><path style="opacity:0.235" fill="#000000" d="M 1659.5,464.5 C 1661.03,464.427 1662.03,465.094 1662.5,466.5C 1660.97,466.573 1659.97,465.906 1659.5,464.5 Z"/></g>
<g><path style="opacity:0.236" fill="#000000" d="M 272.5,466.5 C 274.749,467.08 276.415,468.413 277.5,470.5C 275.251,469.92 273.585,468.587 272.5,466.5 Z"/></g>
<g><path style="opacity:0.19" fill="#000000" d="M 121.5,467.5 C 121.573,469.027 120.906,470.027 119.5,470.5C 119.427,468.973 120.094,467.973 121.5,467.5 Z"/></g>
<g><path style="opacity:0.206" fill="#000000" d="M 116.5,473.5 C 116.573,475.027 115.906,476.027 114.5,476.5C 114.427,474.973 115.094,473.973 116.5,473.5 Z"/></g>
<g><path style="opacity:0.236" fill="#000000" d="M 284.5,477.5 C 286.749,478.08 288.415,479.413 289.5,481.5C 287.251,480.92 285.585,479.587 284.5,477.5 Z"/></g>
<g><path style="opacity:0.22" fill="#000000" d="M 111.5,479.5 C 111.573,481.027 110.906,482.027 109.5,482.5C 109.427,480.973 110.094,479.973 111.5,479.5 Z"/></g>
<g><path style="opacity:0.204" fill="#000000" d="M 1679.5,483.5 C 1680.91,483.973 1681.57,484.973 1681.5,486.5C 1680.09,486.027 1679.43,485.027 1679.5,483.5 Z"/></g>
<g><path style="opacity:0.235" fill="#000000" d="M 106.5,485.5 C 106.573,487.027 105.906,488.027 104.5,488.5C 104.427,486.973 105.094,485.973 106.5,485.5 Z"/></g>
<g><path style="opacity:0.237" fill="#000000" d="M 296.5,488.5 C 298.749,489.08 300.415,490.413 301.5,492.5C 299.251,491.92 297.585,490.587 296.5,488.5 Z"/></g>
<g><path style="opacity:0.268" fill="#000000" d="M 1684.5,489.5 C 1685.91,489.973 1686.57,490.973 1686.5,492.5C 1685.09,492.027 1684.43,491.027 1684.5,489.5 Z"/></g>
<g><path style="opacity:0.254" fill="#000000" d="M 101.5,491.5 C 101.573,493.027 100.906,494.027 99.5,494.5C 99.427,492.973 100.094,491.973 101.5,491.5 Z"/></g>
<g><path style="opacity:0.208" fill="#000000" d="M 420.5,491.5 C 424.1,493.43 427.1,496.097 429.5,499.5C 425.9,497.57 422.9,494.903 420.5,491.5 Z"/></g>
<g><path style="opacity:0.252" fill="#000000" d="M 1687.5,493.5 C 1688.91,493.973 1689.57,494.973 1689.5,496.5C 1688.09,496.027 1687.43,495.027 1687.5,493.5 Z"/></g>
<g><path style="opacity:0.254" fill="#000000" d="M 96.5,497.5 C 96.573,499.027 95.9063,500.027 94.5,500.5C 94.427,498.973 95.0937,497.973 96.5,497.5 Z"/></g>
<g><path style="opacity:0.22" fill="#000000" d="M 309.5,500.5 C 311.404,500.738 312.738,501.738 313.5,503.5C 311.596,503.262 310.262,502.262 309.5,500.5 Z"/></g>
<g><path style="opacity:0.223" fill="#000000" d="M 91.5,503.5 C 91.2624,505.404 90.2624,506.738 88.5,507.5C 88.7376,505.596 89.7376,504.262 91.5,503.5 Z"/></g>
<g><path style="opacity:0.753" fill="#000000" d="M 681.5,504.5 C 682.919,503.549 684.585,503.216 686.5,503.5C 685.84,536.85 686.507,569.85 688.5,602.5C 687.791,603.404 686.791,603.737 685.5,603.5C 685.5,570.5 685.5,537.5 685.5,504.5C 684.167,504.5 682.833,504.5 681.5,504.5 Z"/></g>
<g><path style="opacity:0.189" fill="#000000" d="M 1695.5,505.5 C 1696.91,505.973 1697.57,506.973 1697.5,508.5C 1696.09,508.027 1695.43,507.027 1695.5,505.5 Z"/></g>
<g><path style="opacity:0.222" fill="#000000" d="M 86.5,509.5 C 86.2624,511.404 85.2624,512.738 83.5,513.5C 83.7376,511.596 84.7376,510.262 86.5,509.5 Z"/></g>
<g><path style="opacity:0.205" fill="#000000" d="M 1698.5,510.5 C 1699.91,510.973 1700.57,511.973 1700.5,513.5C 1699.09,513.027 1698.43,512.027 1698.5,510.5 Z"/></g>
<g><path style="opacity:0.221" fill="#000000" d="M 321.5,511.5 C 323.404,511.738 324.738,512.738 325.5,514.5C 323.596,514.262 322.262,513.262 321.5,511.5 Z"/></g>
<g><path style="opacity:0.281" fill="#000000" d="M 442.5,512.5 C 443.499,612.332 443.833,712.332 443.5,812.5C 442.209,812.737 441.209,812.404 440.5,811.5C 442.498,712.172 443.164,612.506 442.5,512.5 Z"/></g>
<g><path style="opacity:0.19" fill="#000000" d="M 80.5,516.5 C 80.573,518.027 79.9063,519.027 78.5,519.5C 78.427,517.973 79.0937,516.973 80.5,516.5 Z"/></g>
<g><path style="opacity:0.19" fill="#000000" d="M 75.5,522.5 C 75.573,524.027 74.9063,525.027 73.5,525.5C 73.427,523.973 74.0937,522.973 75.5,522.5 Z"/></g>
<g><path style="opacity:0.22" fill="#000000" d="M 333.5,522.5 C 335.404,522.738 336.738,523.738 337.5,525.5C 335.596,525.262 334.262,524.262 333.5,522.5 Z"/></g>
<g><path style="opacity:0.188" fill="#000000" d="M 70.5,528.5 C 70.573,530.027 69.9063,531.027 68.5,531.5C 68.427,529.973 69.0937,528.973 70.5,528.5 Z"/></g>
<g><path style="opacity:0.221" fill="#000000" d="M 345.5,533.5 C 347.404,533.738 348.738,534.738 349.5,536.5C 347.596,536.262 346.262,535.262 345.5,533.5 Z"/></g>
<g><path style="opacity:0.22" fill="#000000" d="M 65.5,534.5 C 65.573,536.027 64.9063,537.027 63.5,537.5C 63.427,535.973 64.0937,534.973 65.5,534.5 Z"/></g>
<g><path style="opacity:0.22" fill="#000000" d="M 60.5,540.5 C 60.573,542.027 59.9063,543.027 58.5,543.5C 58.427,541.973 59.0937,540.973 60.5,540.5 Z"/></g>
<g><path style="opacity:0.197" fill="#000000" d="M 357.5,544.5 C 359.749,545.08 361.415,546.413 362.5,548.5C 360.251,547.92 358.585,546.587 357.5,544.5 Z"/></g>
<g><path style="opacity:0.205" fill="#000000" d="M 193.5,545.5 C 195.027,545.427 196.027,546.094 196.5,547.5C 194.973,547.573 193.973,546.906 193.5,545.5 Z"/></g>
<g><path style="opacity:0.252" fill="#000000" d="M 55.5,546.5 C 55.573,548.027 54.9063,549.027 53.5,549.5C 53.427,547.973 54.0937,546.973 55.5,546.5 Z"/></g>
<g><path style="opacity:0.254" fill="#000000" d="M 50.5,552.5 C 50.573,554.027 49.9063,555.027 48.5,555.5C 48.427,553.973 49.0937,552.973 50.5,552.5 Z"/></g>
<g><path style="opacity:0.252" fill="#000000" d="M 45.5,558.5 C 45.573,560.027 44.9063,561.027 43.5,561.5C 43.427,559.973 44.0937,558.973 45.5,558.5 Z"/></g>
<g><path style="opacity:0.207" fill="#000000" d="M 218.5,559.5 C 220.027,559.427 221.027,560.094 221.5,561.5C 219.973,561.573 218.973,560.906 218.5,559.5 Z"/></g>
<g><path style="opacity:0.238" fill="#000000" d="M 42.5,563.5 C 44.0269,563.427 45.0269,564.094 45.5,565.5C 43.9731,565.573 42.9731,564.906 42.5,563.5 Z"/></g>
<g><path style="opacity:0.221" fill="#000000" d="M 50.5,568.5 C 52.0269,568.427 53.0269,569.094 53.5,570.5C 51.9731,570.573 50.9731,569.906 50.5,568.5 Z"/></g>
<g><path style="opacity:0.221" fill="#000000" d="M 58.5,573.5 C 60.0269,573.427 61.0269,574.094 61.5,575.5C 59.9731,575.573 58.9731,574.906 58.5,573.5 Z"/></g>
<g><path style="opacity:0.221" fill="#000000" d="M 243.5,573.5 C 245.027,573.427 246.027,574.094 246.5,575.5C 244.973,575.573 243.973,574.906 243.5,573.5 Z"/></g>
<g><path style="opacity:0.189" fill="#000000" d="M 66.5,578.5 C 68.0269,578.427 69.0269,579.094 69.5,580.5C 67.9731,580.573 66.9731,579.906 66.5,578.5 Z"/></g>
<g><path style="opacity:0.205" fill="#000000" d="M 252.5,578.5 C 254.027,578.427 255.027,579.094 255.5,580.5C 253.973,580.573 252.973,579.906 252.5,578.5 Z"/></g>
<g><path style="opacity:0.189" fill="#000000" d="M 74.5,583.5 C 76.0269,583.427 77.0269,584.094 77.5,585.5C 75.9731,585.573 74.9731,584.906 74.5,583.5 Z"/></g>
<g><path style="opacity:0.53" fill="#000000" d="M 2283.5,584.5 C 2285.17,637.992 2286.17,691.659 2286.5,745.5C 2286.44,746.043 2286.11,746.376 2285.5,746.5C 2284.83,692.433 2284.16,638.433 2283.5,584.5 Z"/></g>
<g><path style="opacity:0.254" fill="#000000" d="M 79.5,586.5 C 81.0269,586.427 82.0269,587.094 82.5,588.5C 80.9731,588.573 79.9731,587.906 79.5,586.5 Z"/></g>
<g><path style="opacity:0.033" fill="#000000" d="M 1898.5,591.5 C 1899.57,590.566 1900.9,590.232 1902.5,590.5C 1903.16,723.838 1902.5,856.838 1900.5,989.5C 1901.5,856.903 1901.83,724.237 1901.5,591.5C 1900.5,591.5 1899.5,591.5 1898.5,591.5 Z"/></g>
<g><path style="opacity:0.254" fill="#000000" d="M 87.5,591.5 C 89.0269,591.427 90.0269,592.094 90.5,593.5C 88.9731,593.573 87.9731,592.906 87.5,591.5 Z"/></g>
<g><path style="opacity:0.999" fill="#fcfcfc" d="M 1898.5,591.5 C 1899.5,591.5 1900.5,591.5 1901.5,591.5C 1901.83,724.237 1901.5,856.903 1900.5,989.5C 1874.71,995.725 1848.71,1001.06 1822.5,1005.5C 1822.5,972.5 1822.5,939.5 1822.5,906.5C 1820.26,906.205 1818.26,906.539 1816.5,907.5C 1787.94,912.927 1759.27,917.927 1730.5,922.5C 1730.5,956.833 1730.5,991.167 1730.5,1025.5C 1705.52,1030.63 1680.52,1035.63 1655.5,1040.5C 1654.17,1040.5 1652.83,1040.5 1651.5,1040.5C 1651.17,908.763 1651.5,777.097 1652.5,645.5C 1734.25,626.899 1816.25,608.899 1898.5,591.5 Z M 1819.5,689.5 C 1821.49,734.488 1822.16,779.821 1821.5,825.5C 1791.15,830.37 1760.81,835.37 1730.5,840.5C 1730.5,796.5 1730.5,752.5 1730.5,708.5C 1760.27,702.545 1789.94,696.212 1819.5,689.5 Z"/></g>
<g><path style="opacity:0.223" fill="#000000" d="M 277.5,592.5 C 279.027,592.427 280.027,593.094 280.5,594.5C 278.973,594.573 277.973,593.906 277.5,592.5 Z"/></g>
<g><path style="opacity:0.238" fill="#000000" d="M 95.5,596.5 C 97.0269,596.427 98.0269,597.094 98.5,598.5C 96.9731,598.573 95.9731,597.906 95.5,596.5 Z"/></g>
<g><path style="opacity:0.205" fill="#000000" d="M 286.5,597.5 C 288.027,597.427 289.027,598.094 289.5,599.5C 287.973,599.573 286.973,598.906 286.5,597.5 Z"/></g>
<g><path style="opacity:0.221" fill="#000000" d="M 103.5,601.5 C 105.027,601.427 106.027,602.094 106.5,603.5C 104.973,603.573 103.973,602.906 103.5,601.5 Z"/></g>
<g><path style="opacity:0.998" fill="#f9f9f9" d="M 1288.5,612.5 C 1288.43,614.027 1289.09,615.027 1290.5,615.5C 1292.08,617.663 1293.42,619.996 1294.5,622.5C 1294.43,624.027 1295.09,625.027 1296.5,625.5C 1297.97,626.436 1298.97,627.77 1299.5,629.5C 1299.43,631.027 1300.09,632.027 1301.5,632.5C 1302.17,632.5 1302.5,632.833 1302.5,633.5C 1302.43,635.027 1303.09,636.027 1304.5,636.5C 1305.83,637.167 1306.83,638.167 1307.5,639.5C 1308.08,641.749 1309.41,643.415 1311.5,644.5C 1314.17,646.5 1316.5,648.833 1318.5,651.5C 1319.58,653.587 1321.25,654.92 1323.5,655.5C 1324.83,656.167 1325.83,657.167 1326.5,658.5C 1326.97,659.906 1327.97,660.573 1329.5,660.5C 1330.17,660.5 1330.5,660.833 1330.5,661.5C 1330.97,662.906 1331.97,663.573 1333.5,663.5C 1367.21,685.879 1404.21,694.046 1444.5,688C 1455.9,686.767 1467.23,685.101 1478.5,683C 1509.92,676.145 1541.25,668.978 1572.5,661.5C 1572.5,688.5 1572.5,715.5 1572.5,742.5C 1503.53,764.459 1432.87,776.959 1360.5,780C 1359.87,802.796 1360.54,825.629 1362.5,848.5C 1434.63,851.7 1504.63,841.033 1572.5,816.5C 1572.83,842.074 1572.49,867.574 1571.5,893C 1518.05,913.456 1462.72,924.623 1405.5,926.5C 1396.14,926.168 1386.81,926.502 1377.5,927.5C 1377.62,928.107 1377.96,928.44 1378.5,928.5C 1386.31,952.788 1396.31,976.121 1408.5,998.5C 1408.43,1000.03 1409.09,1001.03 1410.5,1001.5C 1411.89,1002.9 1412.89,1004.57 1413.5,1006.5C 1413.43,1008.03 1414.09,1009.03 1415.5,1009.5C 1415.43,1011.03 1416.09,1012.03 1417.5,1012.5C 1417.43,1014.03 1418.09,1015.03 1419.5,1015.5C 1419.43,1017.03 1420.09,1018.03 1421.5,1018.5C 1422.17,1018.5 1422.5,1018.83 1422.5,1019.5C 1422.43,1021.03 1423.09,1022.03 1424.5,1022.5C 1425.17,1022.5 1425.5,1022.83 1425.5,1023.5C 1425.43,1025.03 1426.09,1026.03 1427.5,1026.5C 1428.17,1026.5 1428.5,1026.83 1428.5,1027.5C 1428.43,1029.03 1429.09,1030.03 1430.5,1030.5C 1431.83,1031.17 1432.83,1032.17 1433.5,1033.5C 1433.43,1035.03 1434.09,1036.03 1435.5,1036.5C 1437.5,1037.83 1439.17,1039.5 1440.5,1041.5C 1441.42,1044.09 1443.09,1046.09 1445.5,1047.5C 1447.83,1049.17 1449.83,1051.17 1451.5,1053.5C 1452.91,1055.91 1454.91,1057.58 1457.5,1058.5C 1459.5,1059.83 1461.17,1061.5 1462.5,1063.5C 1462.97,1064.91 1463.97,1065.57 1465.5,1065.5C 1466.5,1065.83 1467.17,1066.5 1467.5,1067.5C 1467.97,1068.91 1468.97,1069.57 1470.5,1069.5C 1471.5,1069.83 1472.17,1070.5 1472.5,1071.5C 1472.97,1072.91 1473.97,1073.57 1475.5,1073.5C 1476.17,1073.5 1476.5,1073.83 1476.5,1074.5C 1476.97,1075.91 1477.97,1076.57 1479.5,1076.5C 1479.21,1077.65 1478.38,1078.32 1477,1078.5C 1448.67,1073.56 1421.84,1064.56 1396.5,1051.5C 1396.03,1050.09 1395.03,1049.43 1393.5,1049.5C 1390.52,1048.67 1387.85,1047.34 1385.5,1045.5C 1385.03,1044.09 1384.03,1043.43 1382.5,1043.5C 1381.51,1043.67 1380.84,1043.34 1380.5,1042.5C 1380.03,1041.09 1379.03,1040.43 1377.5,1040.5C 1371.98,1037.91 1366.98,1034.57 1362.5,1030.5C 1362.03,1029.09 1361.03,1028.43 1359.5,1028.5C 1358.83,1028.5 1358.5,1028.17 1358.5,1027.5C 1358.03,1026.09 1357.03,1025.43 1355.5,1025.5C 1354.5,1025.17 1353.83,1024.5 1353.5,1023.5C 1353.03,1022.09 1352.03,1021.43 1350.5,1021.5C 1349.17,1020.83 1348.17,1019.83 1347.5,1018.5C 1347.03,1017.09 1346.03,1016.43 1344.5,1016.5C 1341.83,1014.5 1339.5,1012.17 1337.5,1009.5C 1335.17,1006.5 1332.5,1003.83 1329.5,1001.5C 1326.83,999.5 1324.5,997.167 1322.5,994.5C 1322.26,992.596 1321.26,991.262 1319.5,990.5C 1318.17,989.833 1317.17,988.833 1316.5,987.5C 1316.57,985.973 1315.91,984.973 1314.5,984.5C 1313.5,984.167 1312.83,983.5 1312.5,982.5C 1312.57,980.973 1311.91,979.973 1310.5,979.5C 1309.83,979.5 1309.5,979.167 1309.5,978.5C 1309.57,976.973 1308.91,975.973 1307.5,975.5C 1305.48,973.469 1303.81,971.135 1302.5,968.5C 1302.57,966.973 1301.91,965.973 1300.5,965.5C 1300.57,963.973 1299.91,962.973 1298.5,962.5C 1297.11,961.101 1296.11,959.434 1295.5,957.5C 1295.57,955.973 1294.91,954.973 1293.5,954.5C 1273.53,920.422 1260.36,883.755 1254,844.5C 1244.6,781.088 1248.26,718.421 1265,656.5C 1269.89,638.936 1275.39,621.603 1281.5,604.5C 1285.63,605.347 1287.97,608.013 1288.5,612.5 Z"/></g>
<g><path style="opacity:0.219" fill="#000000" d="M 111.5,606.5 C 113.027,606.427 114.027,607.094 114.5,608.5C 112.973,608.573 111.973,607.906 111.5,606.5 Z"/></g>
<g><path style="opacity:0.191" fill="#000000" d="M 119.5,611.5 C 121.027,611.427 122.027,612.094 122.5,613.5C 120.973,613.573 119.973,612.906 119.5,611.5 Z"/></g>
<g><path style="opacity:0.221" fill="#000000" d="M 311.5,611.5 C 313.027,611.427 314.027,612.094 314.5,613.5C 312.973,613.573 311.973,612.906 311.5,611.5 Z"/></g>
<g><path style="opacity:0.223" fill="#000000" d="M 1288.5,612.5 C 1289.91,612.973 1290.57,613.973 1290.5,615.5C 1289.09,615.027 1288.43,614.027 1288.5,612.5 Z"/></g>
<g><path style="opacity:0.189" fill="#000000" d="M 127.5,616.5 C 129.027,616.427 130.027,617.094 130.5,618.5C 128.973,618.573 127.973,617.906 127.5,616.5 Z"/></g>
<g><path style="opacity:0.205" fill="#000000" d="M 320.5,616.5 C 322.027,616.427 323.027,617.094 323.5,618.5C 321.973,618.573 320.973,617.906 320.5,616.5 Z"/></g>
<g><path style="opacity:0.252" fill="#000000" d="M 132.5,619.5 C 134.027,619.427 135.027,620.094 135.5,621.5C 133.973,621.573 132.973,620.906 132.5,619.5 Z"/></g>
<g><path style="opacity:0.252" fill="#000000" d="M 1294.5,622.5 C 1295.91,622.973 1296.57,623.973 1296.5,625.5C 1295.09,625.027 1294.43,624.027 1294.5,622.5 Z"/></g>
<g><path style="opacity:0.252" fill="#000000" d="M 140.5,624.5 C 142.027,624.427 143.027,625.094 143.5,626.5C 141.973,626.573 140.973,625.906 140.5,624.5 Z"/></g>
<g><path style="opacity:0.234" fill="#000000" d="M 148.5,629.5 C 150.027,629.427 151.027,630.094 151.5,631.5C 149.973,631.573 148.973,630.906 148.5,629.5 Z"/></g>
<g><path style="opacity:0.221" fill="#000000" d="M 1299.5,629.5 C 1300.91,629.973 1301.57,630.973 1301.5,632.5C 1300.09,632.027 1299.43,631.027 1299.5,629.5 Z"/></g>
<g><path style="opacity:0.223" fill="#000000" d="M 345.5,630.5 C 347.027,630.427 348.027,631.094 348.5,632.5C 346.973,632.573 345.973,631.906 345.5,630.5 Z"/></g>
<g><path style="opacity:0.268" fill="#000000" d="M 1302.5,633.5 C 1303.91,633.973 1304.57,634.973 1304.5,636.5C 1303.09,636.027 1302.43,635.027 1302.5,633.5 Z"/></g>
<g><path style="opacity:0.238" fill="#000000" d="M 156.5,634.5 C 158.027,634.427 159.027,635.094 159.5,636.5C 157.973,636.573 156.973,635.906 156.5,634.5 Z"/></g>
<g><path style="opacity:0.203" fill="#000000" d="M 354.5,635.5 C 356.027,635.427 357.027,636.094 357.5,637.5C 355.973,637.573 354.973,636.906 354.5,635.5 Z"/></g>
<g><path style="opacity:0.221" fill="#000000" d="M 164.5,639.5 C 166.027,639.427 167.027,640.094 167.5,641.5C 165.973,641.573 164.973,640.906 164.5,639.5 Z"/></g>
<g><path style="opacity:0.22" fill="#000000" d="M 1307.5,639.5 C 1309.59,640.585 1310.92,642.251 1311.5,644.5C 1309.41,643.415 1308.08,641.749 1307.5,639.5 Z"/></g>
<g><path style="opacity:0.221" fill="#000000" d="M 172.5,644.5 C 174.027,644.427 175.027,645.094 175.5,646.5C 173.973,646.573 172.973,645.906 172.5,644.5 Z"/></g>
<g><path style="opacity:0.533" fill="#000000" d="M 1652.5,645.5 C 1651.5,777.097 1651.17,908.763 1651.5,1040.5C 1652.83,1040.5 1654.17,1040.5 1655.5,1040.5C 1654.08,1041.45 1652.41,1041.78 1650.5,1041.5C 1649.84,909.162 1650.5,777.162 1652.5,645.5 Z"/></g>
<g><path style="opacity:0.189" fill="#000000" d="M 180.5,649.5 C 182.027,649.427 183.027,650.094 183.5,651.5C 181.973,651.573 180.973,650.906 180.5,649.5 Z"/></g>
<g><path style="opacity:0.22" fill="#000000" d="M 1318.5,651.5 C 1320.75,652.08 1322.42,653.413 1323.5,655.5C 1321.25,654.92 1319.58,653.587 1318.5,651.5 Z"/></g>
<g><path style="opacity:0.189" fill="#000000" d="M 188.5,654.5 C 190.027,654.427 191.027,655.094 191.5,656.5C 189.973,656.573 188.973,655.906 188.5,654.5 Z"/></g>
<g><path style="opacity:0.254" fill="#000000" d="M 193.5,657.5 C 195.027,657.427 196.027,658.094 196.5,659.5C 194.973,659.573 193.973,658.906 193.5,657.5 Z"/></g>
<g><path style="opacity:0.188" fill="#000000" d="M 2143.5,657.5 C 2144.17,657.833 2144.83,658.167 2145.5,658.5C 2144.7,660.793 2144.03,660.46 2143.5,657.5 Z"/></g>
<g><path style="opacity:0.272" fill="#000000" d="M 1326.5,658.5 C 1328.03,658.427 1329.03,659.094 1329.5,660.5C 1327.97,660.573 1326.97,659.906 1326.5,658.5 Z"/></g>
<g><path style="opacity:0.223" fill="#000000" d="M 1330.5,661.5 C 1332.03,661.427 1333.03,662.094 1333.5,663.5C 1331.97,663.573 1330.97,662.906 1330.5,661.5 Z"/></g>
<g><path style="opacity:0.252" fill="#000000" d="M 201.5,662.5 C 203.027,662.427 204.027,663.094 204.5,664.5C 202.973,664.573 201.973,663.906 201.5,662.5 Z"/></g>
<g><path style="opacity:0.263" fill="#000000" d="M 2417.5,663.5 C 2418.21,662.596 2419.21,662.263 2420.5,662.5C 2420.73,664.933 2419.73,666.599 2417.5,667.5C 2417.51,665.983 2418.18,664.816 2419.5,664C 2418.91,663.536 2418.24,663.369 2417.5,663.5 Z"/></g>
<g><path style="opacity:0.223" fill="#000000" d="M 2414.5,665.5 C 2414.03,666.906 2413.03,667.573 2411.5,667.5C 2411.97,666.094 2412.97,665.427 2414.5,665.5 Z"/></g>
<g><path style="opacity:0.236" fill="#000000" d="M 209.5,667.5 C 211.027,667.427 212.027,668.094 212.5,669.5C 210.973,669.573 209.973,668.906 209.5,667.5 Z"/></g>
<g><path style="opacity:0.223" fill="#000000" d="M 2406.5,670.5 C 2406.03,671.906 2405.03,672.573 2403.5,672.5C 2403.97,671.094 2404.97,670.427 2406.5,670.5 Z"/></g>
<g><path style="opacity:0.238" fill="#000000" d="M 217.5,672.5 C 219.027,672.427 220.027,673.094 220.5,674.5C 218.973,674.573 217.973,673.906 217.5,672.5 Z"/></g>
<g><path style="opacity:0.237" fill="#000000" d="M 2410.5,674.5 C 2409.92,676.749 2408.59,678.415 2406.5,679.5C 2407.08,677.251 2408.41,675.585 2410.5,674.5 Z"/></g>
<g><path style="opacity:0.219" fill="#000000" d="M 2398.5,675.5 C 2398.03,676.906 2397.03,677.573 2395.5,677.5C 2395.97,676.094 2396.97,675.427 2398.5,675.5 Z"/></g>
<g><path style="opacity:0.223" fill="#000000" d="M 225.5,677.5 C 227.027,677.427 228.027,678.094 228.5,679.5C 226.973,679.573 225.973,678.906 225.5,677.5 Z"/></g>
<g><path style="opacity:0.236" fill="#000000" d="M 2390.5,680.5 C 2390.03,681.906 2389.03,682.573 2387.5,682.5C 2387.97,681.094 2388.97,680.427 2390.5,680.5 Z"/></g>
<g><path style="opacity:0.189" fill="#000000" d="M 233.5,682.5 C 235.027,682.427 236.027,683.094 236.5,684.5C 234.973,684.573 233.973,683.906 233.5,682.5 Z"/></g>
<g><path style="opacity:0.236" fill="#000000" d="M 2382.5,685.5 C 2382.03,686.906 2381.03,687.573 2379.5,687.5C 2379.97,686.094 2380.97,685.427 2382.5,685.5 Z"/></g>
<g><path style="opacity:0.21" fill="#000000" d="M 2399.5,686.5 C 2399.26,688.404 2398.26,689.738 2396.5,690.5C 2396.74,688.596 2397.74,687.262 2399.5,686.5 Z"/></g>
<g><path style="opacity:0.189" fill="#000000" d="M 241.5,687.5 C 243.027,687.427 244.027,688.094 244.5,689.5C 242.973,689.573 241.973,688.906 241.5,687.5 Z"/></g>
<g><path style="opacity:0.535" fill="#000000" d="M 1819.5,689.5 C 1820.21,688.596 1821.21,688.263 1822.5,688.5C 1822.83,734.336 1822.5,780.003 1821.5,825.5C 1822.16,779.821 1821.49,734.488 1819.5,689.5 Z"/></g>
<g><path style="opacity:0.236" fill="#000000" d="M 2374.5,690.5 C 2374.03,691.906 2373.03,692.573 2371.5,692.5C 2371.97,691.094 2372.97,690.427 2374.5,690.5 Z"/></g>
<g><path style="opacity:0.207" fill="#000000" d="M 2069.5,692.5 C 2070.91,692.973 2071.57,693.973 2071.5,695.5C 2070.09,695.027 2069.43,694.027 2069.5,692.5 Z"/></g>
<g><path style="opacity:0.252" fill="#000000" d="M 254.5,695.5 C 256.027,695.427 257.027,696.094 257.5,697.5C 255.973,697.573 254.973,696.906 254.5,695.5 Z"/></g>
<g><path style="opacity:0.24" fill="#000000" d="M 2366.5,695.5 C 2366.03,696.906 2365.03,697.573 2363.5,697.5C 2363.97,696.094 2364.97,695.427 2366.5,695.5 Z"/></g>
<g><path style="opacity:0.284" fill="#000000" d="M 2206.5,896.5 C 2205.83,831.5 2205.17,766.5 2204.5,701.5C 2204.46,700.244 2204.96,699.244 2206,698.5C 2206.5,764.499 2206.67,830.499 2206.5,896.5 Z"/></g>
<g><path style="opacity:0.224" fill="#000000" d="M 2388.5,698.5 C 2388.26,700.404 2387.26,701.738 2385.5,702.5C 2385.74,700.596 2386.74,699.262 2388.5,698.5 Z"/></g>
<g><path style="opacity:0.236" fill="#000000" d="M 262.5,700.5 C 264.027,700.427 265.027,701.094 265.5,702.5C 263.973,702.573 262.973,701.906 262.5,700.5 Z"/></g>
<g><path style="opacity:0.254" fill="#000000" d="M 2358.5,700.5 C 2358.03,701.906 2357.03,702.573 2355.5,702.5C 2355.97,701.094 2356.97,700.427 2358.5,700.5 Z"/></g>
<g><path style="opacity:0.236" fill="#000000" d="M 270.5,705.5 C 272.027,705.427 273.027,706.094 273.5,707.5C 271.973,707.573 270.973,706.906 270.5,705.5 Z"/></g>
<g><path style="opacity:0.256" fill="#000000" d="M 2350.5,705.5 C 2350.03,706.906 2349.03,707.573 2347.5,707.5C 2347.97,706.094 2348.97,705.427 2350.5,705.5 Z"/></g>
<g><path style="opacity:0.206" fill="#000000" d="M 2378.5,709.5 C 2377.92,711.749 2376.59,713.415 2374.5,714.5C 2375.08,712.251 2376.41,710.585 2378.5,709.5 Z"/></g>
<g><path style="opacity:0.223" fill="#000000" d="M 278.5,710.5 C 280.027,710.427 281.027,711.094 281.5,712.5C 279.973,712.573 278.973,711.906 278.5,710.5 Z"/></g>
<g><path style="opacity:0.252" fill="#000000" d="M 2342.5,710.5 C 2342.03,711.906 2341.03,712.573 2339.5,712.5C 2339.97,711.094 2340.97,710.427 2342.5,710.5 Z"/></g>
<g><path style="opacity:0.219" fill="#000000" d="M 2197.5,714.5 C 2197.57,716.027 2196.91,717.027 2195.5,717.5C 2195.43,715.973 2196.09,714.973 2197.5,714.5 Z"/></g>
<g><path style="opacity:0.221" fill="#000000" d="M 286.5,715.5 C 288.027,715.427 289.027,716.094 289.5,717.5C 287.973,717.573 286.973,716.906 286.5,715.5 Z"/></g>
<g><path style="opacity:0.254" fill="#000000" d="M 2334.5,715.5 C 2334.03,716.906 2333.03,717.573 2331.5,717.5C 2331.97,716.094 2332.97,715.427 2334.5,715.5 Z"/></g>
<g><path style="opacity:0.189" fill="#000000" d="M 2329.5,718.5 C 2329.03,719.906 2328.03,720.573 2326.5,720.5C 2326.97,719.094 2327.97,718.427 2329.5,718.5 Z"/></g>
<g><path style="opacity:0.189" fill="#000000" d="M 294.5,720.5 C 296.027,720.427 297.027,721.094 297.5,722.5C 295.973,722.573 294.973,721.906 294.5,720.5 Z"/></g>
<g><path style="opacity:0.205" fill="#000000" d="M 2367.5,721.5 C 2366.92,723.749 2365.59,725.415 2363.5,726.5C 2364.08,724.251 2365.41,722.585 2367.5,721.5 Z"/></g>
<g><path style="opacity:0.207" fill="#000000" d="M 2192.5,723.5 C 2192.57,725.027 2191.91,726.027 2190.5,726.5C 2190.43,724.973 2191.09,723.973 2192.5,723.5 Z"/></g>
<g><path style="opacity:0.189" fill="#000000" d="M 2321.5,723.5 C 2321.03,724.906 2320.03,725.573 2318.5,725.5C 2318.97,724.094 2319.97,723.427 2321.5,723.5 Z"/></g>
<g><path style="opacity:0.189" fill="#000000" d="M 302.5,725.5 C 304.027,725.427 305.027,726.094 305.5,727.5C 303.973,727.573 302.973,726.906 302.5,725.5 Z"/></g>
<g><path style="opacity:0.252" fill="#000000" d="M 307.5,728.5 C 309.027,728.427 310.027,729.094 310.5,730.5C 308.973,730.573 307.973,729.906 307.5,728.5 Z"/></g>
<g><path style="opacity:0.189" fill="#000000" d="M 2313.5,728.5 C 2313.03,729.906 2312.03,730.573 2310.5,730.5C 2310.97,729.094 2311.97,728.427 2313.5,728.5 Z"/></g>
<g><path style="opacity:0.256" fill="#000000" d="M 315.5,733.5 C 317.027,733.427 318.027,734.094 318.5,735.5C 316.973,735.573 315.973,734.906 315.5,733.5 Z"/></g>
<g><path style="opacity:0.191" fill="#000000" d="M 2305.5,733.5 C 2305.03,734.906 2304.03,735.573 2302.5,735.5C 2302.97,734.094 2303.97,733.427 2305.5,733.5 Z"/></g>
<g><path style="opacity:0.219" fill="#000000" d="M 2356.5,733.5 C 2355.92,735.749 2354.59,737.415 2352.5,738.5C 2353.08,736.251 2354.41,734.585 2356.5,733.5 Z"/></g>
<g><path style="opacity:0.236" fill="#000000" d="M 323.5,738.5 C 325.027,738.427 326.027,739.094 326.5,740.5C 324.973,740.573 323.973,739.906 323.5,738.5 Z"/></g>
<g><path style="opacity:0.223" fill="#000000" d="M 2297.5,738.5 C 2297.03,739.906 2296.03,740.573 2294.5,740.5C 2294.97,739.094 2295.97,738.427 2297.5,738.5 Z"/></g>
<g><path style="opacity:0.219" fill="#000000" d="M 2183.5,739.5 C 2183.57,741.027 2182.91,742.027 2181.5,742.5C 2181.43,740.973 2182.09,739.973 2183.5,739.5 Z"/></g>
<g><path style="opacity:0.236" fill="#000000" d="M 331.5,743.5 C 333.027,743.427 334.027,744.094 334.5,745.5C 332.973,745.573 331.973,744.906 331.5,743.5 Z"/></g>
<g><path style="opacity:0.223" fill="#000000" d="M 2289.5,743.5 C 2289.03,744.906 2288.03,745.573 2286.5,745.5C 2286.97,744.094 2287.97,743.427 2289.5,743.5 Z"/></g>
<g><path style="opacity:0.228" fill="#000000" d="M 2345.5,745.5 C 2344.92,747.749 2343.59,749.415 2341.5,750.5C 2342.08,748.251 2343.41,746.585 2345.5,745.5 Z"/></g>
<g><path style="opacity:0.219" fill="#000000" d="M 339.5,748.5 C 341.027,748.427 342.027,749.094 342.5,750.5C 340.973,750.573 339.973,749.906 339.5,748.5 Z"/></g>
<g><path style="opacity:0.205" fill="#000000" d="M 2178.5,748.5 C 2178.57,750.027 2177.91,751.027 2176.5,751.5C 2176.43,749.973 2177.09,748.973 2178.5,748.5 Z"/></g>
<g><path style="opacity:0.203" fill="#000000" d="M 347.5,753.5 C 349.027,753.427 350.027,754.094 350.5,755.5C 348.973,755.573 347.973,754.906 347.5,753.5 Z"/></g>
<g><path style="opacity:0.237" fill="#000000" d="M 2334.5,757.5 C 2333.92,759.749 2332.59,761.415 2330.5,762.5C 2331.08,760.251 2332.41,758.585 2334.5,757.5 Z"/></g>
<g><path style="opacity:0.189" fill="#000000" d="M 355.5,758.5 C 357.027,758.427 358.027,759.094 358.5,760.5C 356.973,760.573 355.973,759.906 355.5,758.5 Z"/></g>
<g><path style="opacity:0.252" fill="#000000" d="M 368.5,766.5 C 370.027,766.427 371.027,767.094 371.5,768.5C 369.973,768.573 368.973,767.906 368.5,766.5 Z"/></g>
<g><path style="opacity:0.221" fill="#000000" d="M 2323.5,769.5 C 2323.26,771.404 2322.26,772.738 2320.5,773.5C 2320.74,771.596 2321.74,770.262 2323.5,769.5 Z"/></g>
<g><path style="opacity:0.236" fill="#000000" d="M 376.5,771.5 C 378.027,771.427 379.027,772.094 379.5,773.5C 377.973,773.573 376.973,772.906 376.5,771.5 Z"/></g>
<g><path style="opacity:0.207" fill="#000000" d="M 2164.5,773.5 C 2164.57,775.027 2163.91,776.027 2162.5,776.5C 2162.43,774.973 2163.09,773.973 2164.5,773.5 Z"/></g>
<g><path style="opacity:0.236" fill="#000000" d="M 384.5,776.5 C 386.027,776.427 387.027,777.094 387.5,778.5C 385.973,778.573 384.973,777.906 384.5,776.5 Z"/></g>
<g><path style="opacity:0.221" fill="#000000" d="M 392.5,781.5 C 394.027,781.427 395.027,782.094 395.5,783.5C 393.973,783.573 392.973,782.906 392.5,781.5 Z"/></g>
<g><path style="opacity:0.221" fill="#000000" d="M 2312.5,781.5 C 2312.26,783.404 2311.26,784.738 2309.5,785.5C 2309.74,783.596 2310.74,782.262 2312.5,781.5 Z"/></g>
<g><path style="opacity:0.221" fill="#000000" d="M 400.5,786.5 C 402.027,786.427 403.027,787.094 403.5,788.5C 401.973,788.573 400.973,787.906 400.5,786.5 Z"/></g>
<g><path style="opacity:0.189" fill="#000000" d="M 408.5,791.5 C 410.027,791.427 411.027,792.094 411.5,793.5C 409.973,793.573 408.973,792.906 408.5,791.5 Z"/></g>
<g><path style="opacity:0.205" fill="#000000" d="M 2302.5,792.5 C 2301.92,794.749 2300.59,796.415 2298.5,797.5C 2299.08,795.251 2300.41,793.585 2302.5,792.5 Z"/></g>
<g><path style="opacity:0.187" fill="#000000" d="M 416.5,796.5 C 418.027,796.427 419.027,797.094 419.5,798.5C 417.973,798.573 416.973,797.906 416.5,796.5 Z"/></g>
<g><path style="opacity:0.223" fill="#000000" d="M 2150.5,798.5 C 2150.57,800.027 2149.91,801.027 2148.5,801.5C 2148.43,799.973 2149.09,798.973 2150.5,798.5 Z"/></g>
<g><path style="opacity:0.256" fill="#000000" d="M 429.5,804.5 C 431.027,804.427 432.027,805.094 432.5,806.5C 430.973,806.573 429.973,805.906 429.5,804.5 Z"/></g>
<g><path style="opacity:0.214" fill="#000000" d="M 2291.5,804.5 C 2290.92,806.749 2289.59,808.415 2287.5,809.5C 2288.08,807.251 2289.41,805.585 2291.5,804.5 Z"/></g>
<g><path style="opacity:0.207" fill="#000000" d="M 2145.5,807.5 C 2145.57,809.027 2144.91,810.027 2143.5,810.5C 2143.43,808.973 2144.09,807.973 2145.5,807.5 Z"/></g>
<g><path style="opacity:0.236" fill="#000000" d="M 437.5,809.5 C 439.027,809.427 440.027,810.094 440.5,811.5C 438.973,811.573 437.973,810.906 437.5,809.5 Z"/></g>
<g><path style="opacity:0.221" fill="#000000" d="M 2280.5,816.5 C 2279.92,818.749 2278.59,820.415 2276.5,821.5C 2277.08,819.251 2278.41,817.585 2280.5,816.5 Z"/></g>
<g><path style="opacity:0.238" fill="#000000" d="M 2269.5,828.5 C 2268.92,830.749 2267.59,832.415 2265.5,833.5C 2266.08,831.251 2267.41,829.585 2269.5,828.5 Z"/></g>
<g><path style="opacity:0.237" fill="#000000" d="M 2258.5,840.5 C 2257.92,842.749 2256.59,844.415 2254.5,845.5C 2255.08,843.251 2256.41,841.585 2258.5,840.5 Z"/></g>
<g><path style="opacity:0.222" fill="#000000" d="M 2247.5,852.5 C 2247.26,854.404 2246.26,855.738 2244.5,856.5C 2244.74,854.596 2245.74,853.262 2247.5,852.5 Z"/></g>
<g><path style="opacity:0.233" fill="#000000" d="M 2236.5,864.5 C 2236.26,866.404 2235.26,867.738 2233.5,868.5C 2233.74,866.596 2234.74,865.262 2236.5,864.5 Z"/></g>
<g><path style="opacity:0.204" fill="#000000" d="M 2226.5,875.5 C 2225.92,877.749 2224.59,879.415 2222.5,880.5C 2223.08,878.251 2224.41,876.585 2226.5,875.5 Z"/></g>
<g><path style="opacity:0.222" fill="#000000" d="M 2215.5,887.5 C 2214.92,889.749 2213.59,891.415 2211.5,892.5C 2212.08,890.251 2213.41,888.585 2215.5,887.5 Z"/></g>
<g><path style="opacity:0.522" fill="#000000" d="M 1816.5,907.5 C 1818.26,906.539 1820.26,906.205 1822.5,906.5C 1822.5,939.5 1822.5,972.5 1822.5,1005.5C 1821.5,973.004 1821.17,940.338 1821.5,907.5C 1819.83,907.5 1818.17,907.5 1816.5,907.5 Z"/></g>
<g><path style="opacity:0.224" fill="#000000" d="M 1405.5,926.5 C 1396.5,927.167 1387.5,927.833 1378.5,928.5C 1377.96,928.44 1377.62,928.107 1377.5,927.5C 1386.81,926.502 1396.14,926.168 1405.5,926.5 Z"/></g>
<g><path style="opacity:0.189" fill="#000000" d="M 1293.5,954.5 C 1294.91,954.973 1295.57,955.973 1295.5,957.5C 1294.09,957.027 1293.43,956.027 1293.5,954.5 Z"/></g>
<g><path style="opacity:0.189" fill="#000000" d="M 1298.5,962.5 C 1299.91,962.973 1300.57,963.973 1300.5,965.5C 1299.09,965.027 1298.43,964.027 1298.5,962.5 Z"/></g>
<g><path style="opacity:0.205" fill="#000000" d="M 1300.5,965.5 C 1301.91,965.973 1302.57,966.973 1302.5,968.5C 1301.09,968.027 1300.43,967.027 1300.5,965.5 Z"/></g>
<g><path style="opacity:0.188" fill="#000000" d="M 1307.5,975.5 C 1308.91,975.973 1309.57,976.973 1309.5,978.5C 1308.09,978.027 1307.43,977.027 1307.5,975.5 Z"/></g>
<g><path style="opacity:0.175" fill="#000000" d="M 1310.5,979.5 C 1311.91,979.973 1312.57,980.973 1312.5,982.5C 1311.09,982.027 1310.43,981.027 1310.5,979.5 Z"/></g>
<g><path style="opacity:0.21" fill="#000000" d="M 1314.5,984.5 C 1315.91,984.973 1316.57,985.973 1316.5,987.5C 1315.09,987.027 1314.43,986.027 1314.5,984.5 Z"/></g>
<g><path style="opacity:0.231" fill="#000000" d="M 1319.5,990.5 C 1321.26,991.262 1322.26,992.596 1322.5,994.5C 1320.74,993.738 1319.74,992.404 1319.5,990.5 Z"/></g>
<g><path style="opacity:0.236" fill="#000000" d="M 1408.5,998.5 C 1409.91,998.973 1410.57,999.973 1410.5,1001.5C 1409.09,1001.03 1408.43,1000.03 1408.5,998.5 Z"/></g>
<g><path style="opacity:0.224" fill="#000000" d="M 1329.5,1001.5 C 1332.5,1003.83 1335.17,1006.5 1337.5,1009.5C 1333.83,1007.83 1331.17,1005.17 1329.5,1001.5 Z"/></g>
<g><path style="opacity:0.205" fill="#000000" d="M 1413.5,1006.5 C 1414.91,1006.97 1415.57,1007.97 1415.5,1009.5C 1414.09,1009.03 1413.43,1008.03 1413.5,1006.5 Z"/></g>
<g><path style="opacity:0.205" fill="#000000" d="M 1415.5,1009.5 C 1416.91,1009.97 1417.57,1010.97 1417.5,1012.5C 1416.09,1012.03 1415.43,1011.03 1415.5,1009.5 Z"/></g>
<g><path style="opacity:0.207" fill="#000000" d="M 1417.5,1012.5 C 1418.91,1012.97 1419.57,1013.97 1419.5,1015.5C 1418.09,1015.03 1417.43,1014.03 1417.5,1012.5 Z"/></g>
<g><path style="opacity:0.268" fill="#000000" d="M 1419.5,1015.5 C 1420.91,1015.97 1421.57,1016.97 1421.5,1018.5C 1420.09,1018.03 1419.43,1017.03 1419.5,1015.5 Z"/></g>
<g><path style="opacity:0.237" fill="#000000" d="M 1344.5,1016.5 C 1346.03,1016.43 1347.03,1017.09 1347.5,1018.5C 1345.97,1018.57 1344.97,1017.91 1344.5,1016.5 Z"/></g>
<g><path style="opacity:0.188" fill="#000000" d="M 1422.5,1019.5 C 1423.91,1019.97 1424.57,1020.97 1424.5,1022.5C 1423.09,1022.03 1422.43,1021.03 1422.5,1019.5 Z"/></g>
<g><path style="opacity:0.238" fill="#000000" d="M 1350.5,1021.5 C 1352.03,1021.43 1353.03,1022.09 1353.5,1023.5C 1351.97,1023.57 1350.97,1022.91 1350.5,1021.5 Z"/></g>
<g><path style="opacity:0.188" fill="#000000" d="M 1425.5,1023.5 C 1426.91,1023.97 1427.57,1024.97 1427.5,1026.5C 1426.09,1026.03 1425.43,1025.03 1425.5,1023.5 Z"/></g>
<g><path style="opacity:0.19" fill="#000000" d="M 1355.5,1025.5 C 1357.03,1025.43 1358.03,1026.09 1358.5,1027.5C 1356.97,1027.57 1355.97,1026.91 1355.5,1025.5 Z"/></g>
<g><path style="opacity:0.27" fill="#000000" d="M 1428.5,1027.5 C 1429.91,1027.97 1430.57,1028.97 1430.5,1030.5C 1429.09,1030.03 1428.43,1029.03 1428.5,1027.5 Z"/></g>
<g><path style="opacity:0.188" fill="#000000" d="M 1359.5,1028.5 C 1361.03,1028.43 1362.03,1029.09 1362.5,1030.5C 1360.97,1030.57 1359.97,1029.91 1359.5,1028.5 Z"/></g>
<g><path style="opacity:0.22" fill="#000000" d="M 1433.5,1033.5 C 1434.91,1033.97 1435.57,1034.97 1435.5,1036.5C 1434.09,1036.03 1433.43,1035.03 1433.5,1033.5 Z"/></g>
<g><path style="opacity:0.238" fill="#000000" d="M 1377.5,1040.5 C 1379.03,1040.43 1380.03,1041.09 1380.5,1042.5C 1378.97,1042.57 1377.97,1041.91 1377.5,1040.5 Z"/></g>
<g><path style="opacity:0.209" fill="#000000" d="M 1440.5,1041.5 C 1442.91,1042.91 1444.58,1044.91 1445.5,1047.5C 1443.09,1046.09 1441.42,1044.09 1440.5,1041.5 Z"/></g>
<g><path style="opacity:0.207" fill="#000000" d="M 1382.5,1043.5 C 1384.03,1043.43 1385.03,1044.09 1385.5,1045.5C 1383.97,1045.57 1382.97,1044.91 1382.5,1043.5 Z"/></g>
<g><path style="opacity:0.221" fill="#000000" d="M 1393.5,1049.5 C 1395.03,1049.43 1396.03,1050.09 1396.5,1051.5C 1394.97,1051.57 1393.97,1050.91 1393.5,1049.5 Z"/></g>
<g><path style="opacity:0.222" fill="#000000" d="M 1451.5,1053.5 C 1454.09,1054.42 1456.09,1056.09 1457.5,1058.5C 1454.91,1057.58 1452.91,1055.91 1451.5,1053.5 Z"/></g>
<g><path style="opacity:0.25" fill="#000000" d="M 1462.5,1063.5 C 1464.03,1063.43 1465.03,1064.09 1465.5,1065.5C 1463.97,1065.57 1462.97,1064.91 1462.5,1063.5 Z"/></g>
<g><path style="opacity:0.236" fill="#000000" d="M 2052.5,1065.5 C 2051.92,1067.75 2050.59,1069.42 2048.5,1070.5C 2049.08,1068.25 2050.41,1066.58 2052.5,1065.5 Z"/></g>
<g><path style="opacity:0.176" fill="#000000" d="M 1467.5,1067.5 C 1469.03,1067.43 1470.03,1068.09 1470.5,1069.5C 1468.97,1069.57 1467.97,1068.91 1467.5,1067.5 Z"/></g>
<g><path style="opacity:0.254" fill="#000000" d="M 1472.5,1071.5 C 1474.03,1071.43 1475.03,1072.09 1475.5,1073.5C 1473.97,1073.57 1472.97,1072.91 1472.5,1071.5 Z"/></g>
<g><path style="opacity:0.252" fill="#000000" d="M 1476.5,1074.5 C 1478.03,1074.43 1479.03,1075.09 1479.5,1076.5C 1477.97,1076.57 1476.97,1075.91 1476.5,1074.5 Z"/></g>
<g><path style="opacity:0.221" fill="#000000" d="M 2041.5,1077.5 C 2041.26,1079.4 2040.26,1080.74 2038.5,1081.5C 2038.74,1079.6 2039.74,1078.26 2041.5,1077.5 Z"/></g>
<g><path style="opacity:0.233" fill="#000000" d="M 2030.5,1089.5 C 2030.26,1091.4 2029.26,1092.74 2027.5,1093.5C 2027.74,1091.6 2028.74,1090.26 2030.5,1089.5 Z"/></g>
<g><path style="opacity:0.205" fill="#000000" d="M 2020.5,1100.5 C 2019.92,1102.75 2018.59,1104.42 2016.5,1105.5C 2017.08,1103.25 2018.41,1101.58 2020.5,1100.5 Z"/></g>
<g><path style="opacity:0.22" fill="#000000" d="M 2009.5,1112.5 C 2008.92,1114.75 2007.59,1116.42 2005.5,1117.5C 2006.08,1115.25 2007.41,1113.58 2009.5,1112.5 Z"/></g>
<g><path style="opacity:0.222" fill="#000000" d="M 1998.5,1124.5 C 1997.92,1126.75 1996.59,1128.42 1994.5,1129.5C 1995.08,1127.25 1996.41,1125.58 1998.5,1124.5 Z"/></g>
<g><path style="opacity:0.237" fill="#000000" d="M 1987.5,1136.5 C 1986.92,1138.75 1985.59,1140.42 1983.5,1141.5C 1984.08,1139.25 1985.41,1137.58 1987.5,1136.5 Z"/></g>
</svg>
