<?xml version="1.0" encoding="UTF-8"?>
<!DOCTYPE svg PUBLIC "-//W3C//DTD SVG 1.1//EN" "http://www.w3.org/Graphics/SVG/1.1/DTD/svg11.dtd">
<svg xmlns="http://www.w3.org/2000/svg" version="1.1" width="364px" height="430px" style="shape-rendering:geometricPrecision; text-rendering:geometricPrecision; image-rendering:optimizeQuality; fill-rule:evenodd; clip-rule:evenodd" xmlns:xlink="http://www.w3.org/1999/xlink">
<g><path style="opacity:1" fill="#f8f7fd" d="M 13.5,-0.5 C 125.5,-0.5 237.5,-0.5 349.5,-0.5C 356.167,2.16667 360.833,6.83333 363.5,13.5C 363.5,96.5 363.5,179.5 363.5,262.5C 250.833,262.333 138.166,262.5 25.5,263C 22.6193,264.251 20.786,266.417 20,269.5C 19.5,322.832 19.3333,376.166 19.5,429.5C 17.5,429.5 15.5,429.5 13.5,429.5C 6.83333,426.833 2.16667,422.167 -0.5,415.5C -0.5,281.5 -0.5,147.5 -0.5,13.5C 2.16667,6.83333 6.83333,2.16667 13.5,-0.5 Z"/></g>
<g><path style="opacity:1" fill="#ffc10f" d="M 117.5,41.5 C 155.971,43.1432 181.471,62.1432 194,98.5C 196.303,105.952 196.803,113.452 195.5,121C 169.5,121.667 143.5,121.667 117.5,121C 117,120.5 116.5,120 116,119.5C 115.333,94.1667 115.333,68.8333 116,43.5C 116.717,42.9558 117.217,42.2891 117.5,41.5 Z"/></g>
<g><path style="opacity:1" fill="#2396f3" d="M 94.5,48.5 C 99.43,48.1975 104.263,48.5308 109,49.5C 109.333,74.5 109.667,99.5 110,124.5C 125.898,144.727 141.398,165.227 156.5,186C 149.449,193.534 140.783,198.534 130.5,201C 91.3525,207.008 62.1859,192.841 43,158.5C 28.2582,120.976 35.7582,88.809 65.5,62C 74.4692,55.8467 84.1359,51.3467 94.5,48.5 Z"/></g>
<g><path style="opacity:1" fill="#4ea7cd" d="M 227.5,63.5 C 255.502,63.3334 283.502,63.5 311.5,64C 316.626,66.553 317.793,70.3864 315,75.5C 314.097,76.7014 312.931,77.5348 311.5,78C 283.5,78.6667 255.5,78.6667 227.5,78C 222.202,73.0918 222.202,68.2584 227.5,63.5 Z"/></g>
<g><path style="opacity:1" fill="#dbe5fa" d="M 227.5,88.5 C 246.17,88.3334 264.836,88.5001 283.5,89C 288.626,91.553 289.793,95.3864 287,100.5C 286.097,101.701 284.931,102.535 283.5,103C 265.167,103.667 246.833,103.667 228.5,103C 222.205,98.6625 221.872,93.8292 227.5,88.5 Z"/></g>
<g><path style="opacity:1" fill="#4eaf51" d="M 124.5,128.5 C 147.836,128.333 171.169,128.5 194.5,129C 195,129.5 195.5,130 196,130.5C 196.243,153.515 188.076,173.015 171.5,189C 170.5,189.667 169.5,189.667 168.5,189C 152.682,170.348 137.349,151.348 122.5,132C 122.978,130.697 123.645,129.531 124.5,128.5 Z"/></g>
<g><path style="opacity:1" fill="#4ea7cd" d="M 227.5,138.5 C 255.502,138.333 283.502,138.5 311.5,139C 316.626,141.553 317.793,145.386 315,150.5C 314.097,151.701 312.931,152.535 311.5,153C 283.5,153.667 255.5,153.667 227.5,153C 222.202,148.092 222.202,143.258 227.5,138.5 Z"/></g>
<g><path style="opacity:1" fill="#dbe5fa" d="M 227.5,163.5 C 246.17,163.333 264.836,163.5 283.5,164C 288.626,166.553 289.793,170.386 287,175.5C 286.097,176.701 284.931,177.535 283.5,178C 265.167,178.667 246.833,178.667 228.5,178C 222.205,173.663 221.872,168.829 227.5,163.5 Z"/></g>
<g><path style="opacity:1" fill="#e9effb" d="M 363.5,262.5 C 363.5,269.5 363.5,276.5 363.5,283.5C 362.038,282.542 360.705,281.376 359.5,280C 253.5,279.333 147.5,279.333 41.5,280C 40.3333,281.167 39.1667,282.333 38,283.5C 37.3333,331.5 37.3333,379.5 38,427.5C 38.7172,428.044 39.2172,428.711 39.5,429.5C 32.8333,429.5 26.1667,429.5 19.5,429.5C 19.3333,376.166 19.5,322.832 20,269.5C 20.786,266.417 22.6193,264.251 25.5,263C 138.166,262.5 250.833,262.333 363.5,262.5 Z"/></g>
<g><path style="opacity:1" fill="#f4f9f9" d="M 363.5,283.5 C 363.5,296.5 363.5,309.5 363.5,322.5C 305.499,322.333 247.499,322.5 189.5,323C 184.432,325.983 183.265,330.149 186,335.5C 186.903,336.701 188.069,337.535 189.5,338C 247.499,338.5 305.499,338.667 363.5,338.5C 363.5,351.167 363.5,363.833 363.5,376.5C 333.5,376.5 303.5,376.5 273.5,376.5C 244.831,376.333 216.165,376.5 187.5,377C 183.82,379.444 183.486,382.444 186.5,386C 215.498,386.5 244.498,386.667 273.5,386.5C 303.5,386.5 333.5,386.5 363.5,386.5C 363.5,396.167 363.5,405.833 363.5,415.5C 360.833,422.167 356.167,426.833 349.5,429.5C 246.167,429.5 142.833,429.5 39.5,429.5C 39.2172,428.711 38.7172,428.044 38,427.5C 37.3333,379.5 37.3333,331.5 38,283.5C 39.1667,282.333 40.3333,281.167 41.5,280C 147.5,279.333 253.5,279.333 359.5,280C 360.705,281.376 362.038,282.542 363.5,283.5 Z"/></g>
<g><path style="opacity:1" fill="#1a81ce" d="M 90.5,319.5 C 109.836,319.333 129.17,319.5 148.5,320C 151,321.167 152.833,323 154,325.5C 154.667,344.833 154.667,364.167 154,383.5C 152.52,386.663 150.02,388.496 146.5,389C 127.833,389.667 109.167,389.667 90.5,389C 88,387.833 86.1667,386 85,383.5C 84.3333,364.167 84.3333,344.833 85,325.5C 86.6993,323.304 88.5327,321.304 90.5,319.5 Z"/></g>
<g><path style="opacity:1" fill="#dbe5fa" d="M 363.5,322.5 C 363.5,327.833 363.5,333.167 363.5,338.5C 305.499,338.667 247.499,338.5 189.5,338C 188.069,337.535 186.903,336.701 186,335.5C 183.265,330.149 184.432,325.983 189.5,323C 247.499,322.5 305.499,322.333 363.5,322.5 Z"/></g>
<g><path style="opacity:1" fill="#d7e3f9" d="M 115.5,341.5 C 125.01,340.676 130.344,345.009 131.5,354.5C 136.737,357.173 137.737,361.006 134.5,366C 129.609,367.114 124.609,367.614 119.5,367.5C 115.167,367.333 110.833,367.167 106.5,367C 103.009,365.179 101.843,362.346 103,358.5C 103.759,356.365 105.259,355.032 107.5,354.5C 107.904,348.678 110.571,344.344 115.5,341.5 Z"/></g>
<g><path style="opacity:1" fill="#dbe5fa" d="M 185.5,354.5 C 219.502,354.333 253.502,354.5 287.5,355C 288.991,357.022 288.658,358.688 286.5,360C 252.833,360.667 219.167,360.667 185.5,360C 184.248,358.172 184.248,356.339 185.5,354.5 Z"/></g>
<g><path style="opacity:1" fill="#4fa7cd" d="M 273.5,376.5 C 277.5,379.833 277.5,383.167 273.5,386.5C 244.498,386.667 215.498,386.5 186.5,386C 183.486,382.444 183.82,379.444 187.5,377C 216.165,376.5 244.831,376.333 273.5,376.5 Z"/></g>
<g><path style="opacity:1" fill="#dae4f9" d="M 273.5,376.5 C 303.5,376.5 333.5,376.5 363.5,376.5C 363.5,379.833 363.5,383.167 363.5,386.5C 333.5,386.5 303.5,386.5 273.5,386.5C 277.5,383.167 277.5,379.833 273.5,376.5 Z"/></g>
</svg>
