<?xml version="1.0" encoding="UTF-8"?>
<!DOCTYPE svg PUBLIC "-//W3C//DTD SVG 1.1//EN" "http://www.w3.org/Graphics/SVG/1.1/DTD/svg11.dtd">
<svg xmlns="http://www.w3.org/2000/svg" version="1.1" width="364px" height="430px" style="shape-rendering:geometricPrecision; text-rendering:geometricPrecision; image-rendering:optimizeQuality; fill-rule:evenodd; clip-rule:evenodd" xmlns:xlink="http://www.w3.org/1999/xlink">
<g><path style="opacity:1" fill="#f8f7fd" d="M 13.5,-0.5 C 125.5,-0.5 237.5,-0.5 349.5,-0.5C 356.167,2.16667 360.833,6.83333 363.5,13.5C 363.5,147.5 363.5,281.5 363.5,415.5C 360.833,422.167 356.167,426.833 349.5,429.5C 237.5,429.5 125.5,429.5 13.5,429.5C 6.83333,426.833 2.16667,422.167 -0.5,415.5C -0.5,281.5 -0.5,147.5 -0.5,13.5C 2.16667,6.83333 6.83333,2.16667 13.5,-0.5 Z"/></g>
<g><path style="opacity:1" fill="#eaf1fe" d="M 50.5,39.5 C 138.544,39.0104 226.544,39.5104 314.5,41C 318.388,43.2215 321.221,46.3882 323,50.5C 323.977,91.5463 323.644,132.546 322,173.5C 319.571,178.266 315.737,181.1 310.5,182C 223.833,182.667 137.167,182.667 50.5,182C 44.7979,179.635 41.2979,175.469 40,169.5C 39.3333,130.5 39.3333,91.5 40,52.5C 41.4955,46.5085 44.9955,42.1752 50.5,39.5 Z"/></g>
<g><path style="opacity:1" fill="#4fa7cd" d="M 62.5,214.5 C 87.5093,213.677 99.676,225.677 99,250.5C 92.6148,269.779 79.4482,277.279 59.5,273C 40.0163,263.192 34.8497,248.359 44,228.5C 48.8483,222.003 55.015,217.336 62.5,214.5 Z"/></g>
<g><path style="opacity:1" fill="#4ea7cd" d="M 123.5,214.5 C 186.834,214.333 250.168,214.5 313.5,215C 318.626,217.553 319.793,221.386 317,226.5C 316.097,227.701 314.931,228.535 313.5,229C 250.167,229.667 186.833,229.667 123.5,229C 118.202,224.092 118.202,219.258 123.5,214.5 Z"/></g>
<g><path style="opacity:1" fill="#dbe5fa" d="M 123.5,239.5 C 183.168,239.333 242.834,239.5 302.5,240C 307.626,242.553 308.793,246.386 306,251.5C 305.097,252.701 303.931,253.535 302.5,254C 243.167,254.667 183.833,254.667 124.5,254C 118.205,249.663 117.872,244.829 123.5,239.5 Z"/></g>
<g><path style="opacity:1" fill="#dbe5fa" d="M 123.5,264.5 C 176.168,264.333 228.834,264.5 281.5,265C 286.626,267.553 287.793,271.386 285,276.5C 284.097,277.701 282.931,278.535 281.5,279C 229.167,279.667 176.833,279.667 124.5,279C 118.205,274.663 117.872,269.829 123.5,264.5 Z"/></g>
<g><path style="opacity:1" fill="#1981ce" d="M 123.5,324.5 C 186.834,324.333 250.168,324.5 313.5,325C 318.626,327.553 319.793,331.386 317,336.5C 316.097,337.701 314.931,338.535 313.5,339C 250.167,339.667 186.833,339.667 123.5,339C 118.202,334.092 118.202,329.258 123.5,324.5 Z"/></g>
<g><path style="opacity:1" fill="#1d82ce" d="M 62.5,329.5 C 87.5093,328.677 99.676,340.677 99,365.5C 92.6148,384.779 79.4482,392.279 59.5,388C 40.0163,378.192 34.8497,363.359 44,343.5C 48.8483,337.003 55.015,332.336 62.5,329.5 Z"/></g>
<g><path style="opacity:1" fill="#dbe5fa" d="M 123.5,349.5 C 174.168,349.333 224.834,349.5 275.5,350C 280.626,352.553 281.793,356.386 279,361.5C 278.097,362.701 276.931,363.535 275.5,364C 225.167,364.667 174.833,364.667 124.5,364C 118.205,359.663 117.872,354.829 123.5,349.5 Z"/></g>
<g><path style="opacity:1" fill="#dbe5fa" d="M 123.5,374.5 C 178.501,374.333 233.501,374.5 288.5,375C 293.626,377.553 294.793,381.386 292,386.5C 291.097,387.701 289.931,388.535 288.5,389C 233.833,389.667 179.167,389.667 124.5,389C 118.205,384.663 117.872,379.829 123.5,374.5 Z"/></g>
</svg>
