<?xml version="1.0" encoding="UTF-8"?>
<!DOCTYPE svg PUBLIC "-//W3C//DTD SVG 1.1//EN" "http://www.w3.org/Graphics/SVG/1.1/DTD/svg11.dtd">
<svg xmlns="http://www.w3.org/2000/svg" version="1.1" width="364px" height="430px" style="shape-rendering:geometricPrecision; text-rendering:geometricPrecision; image-rendering:optimizeQuality; fill-rule:evenodd; clip-rule:evenodd" xmlns:xlink="http://www.w3.org/1999/xlink">
<g><path style="opacity:0.999" fill="#f8f7fd" d="M 13.5,-0.5 C 125.5,-0.5 237.5,-0.5 349.5,-0.5C 356.167,2.16667 360.833,6.83333 363.5,13.5C 363.5,22.8333 363.5,32.1667 363.5,41.5C 250.833,41.3333 138.166,41.5 25.5,42C 22.6193,43.2506 20.786,45.4173 20,48.5C 19.5,175.5 19.3333,302.5 19.5,429.5C 17.5,429.5 15.5,429.5 13.5,429.5C 6.83333,426.833 2.16667,422.167 -0.5,415.5C -0.5,281.5 -0.5,147.5 -0.5,13.5C 2.16667,6.83333 6.83333,2.16667 13.5,-0.5 Z"/></g>
<g><path style="opacity:1" fill="#e9effc" d="M 363.5,41.5 C 363.5,48.8333 363.5,56.1667 363.5,63.5C 362.354,61.525 360.687,60.025 358.5,59C 253.167,58.3333 147.833,58.3333 42.5,59C 41.0692,59.4652 39.9025,60.2986 39,61.5C 37.5038,184.086 37.0038,306.752 37.5,429.5C 31.5,429.5 25.5,429.5 19.5,429.5C 19.3333,302.5 19.5,175.5 20,48.5C 20.786,45.4173 22.6193,43.2506 25.5,42C 138.166,41.5 250.833,41.3333 363.5,41.5 Z"/></g>
<g><path style="opacity:1" fill="#f4f9f9" d="M 363.5,63.5 C 363.5,66.1667 363.5,68.8333 363.5,71.5C 355.626,72.3734 350.96,76.7068 349.5,84.5C 256.499,84.3333 163.499,84.5 70.5,85C 66.5721,86.5933 64.0721,89.4267 63,93.5C 62.3333,109.833 62.3333,126.167 63,142.5C 64.5933,146.428 67.4267,148.928 71.5,150C 164.166,150.5 256.833,150.667 349.5,150.5C 349.5,153.167 349.5,155.833 349.5,158.5C 256.499,158.333 163.499,158.5 70.5,159C 66.5721,160.593 64.0721,163.427 63,167.5C 62.3333,183.833 62.3333,200.167 63,216.5C 64.5933,220.428 67.4267,222.928 71.5,224C 164.57,224.169 257.57,224.669 350.5,225.5C 352.93,231.217 357.263,234.217 363.5,234.5C 363.5,294.833 363.5,355.167 363.5,415.5C 360.833,422.167 356.167,426.833 349.5,429.5C 245.5,429.5 141.5,429.5 37.5,429.5C 37.0038,306.752 37.5038,184.086 39,61.5C 39.9025,60.2986 41.0692,59.4652 42.5,59C 147.833,58.3333 253.167,58.3333 358.5,59C 360.687,60.025 362.354,61.525 363.5,63.5 Z"/></g>
<g><path style="opacity:1" fill="#1981ce" d="M 363.5,71.5 C 363.5,125.833 363.5,180.167 363.5,234.5C 357.263,234.217 352.93,231.217 350.5,225.5C 349.521,203.212 349.188,180.879 349.5,158.5C 349.5,155.833 349.5,153.167 349.5,150.5C 349.5,128.5 349.5,106.5 349.5,84.5C 350.96,76.7068 355.626,72.3734 363.5,71.5 Z"/></g>
<g><path style="opacity:1" fill="#e4f3f3" d="M 349.5,84.5 C 349.5,106.5 349.5,128.5 349.5,150.5C 256.833,150.667 164.166,150.5 71.5,150C 67.4267,148.928 64.5933,146.428 63,142.5C 62.3333,126.167 62.3333,109.833 63,93.5C 64.0721,89.4267 66.5721,86.5933 70.5,85C 163.499,84.5 256.499,84.3333 349.5,84.5 Z"/></g>
<g><path style="opacity:1" fill="#fefefe" d="M 78.5,93.5 C 90.1714,93.3335 101.838,93.5001 113.5,94C 116.171,95.25 118.337,97.0833 120,99.5C 120.667,111.167 120.667,122.833 120,134.5C 118.75,137.171 116.917,139.337 114.5,141C 102.5,141.667 90.5,141.667 78.5,141C 75.5107,139.345 73.6773,136.845 73,133.5C 72.3333,122.5 72.3333,111.5 73,100.5C 74.371,97.7339 76.2043,95.4006 78.5,93.5 Z"/></g>
<g><path style="opacity:1" fill="#56aace" d="M 92.5,108.5 C 100.15,106.828 104.484,109.828 105.5,117.5C 109.436,120.633 109.436,123.8 105.5,127C 99.5,127.667 93.5,127.667 87.5,127C 84.7972,125.18 83.9639,122.68 85,119.5C 87.4427,115.807 89.9427,112.14 92.5,108.5 Z"/></g>
<g><path style="opacity:1" fill="#4ea7cd" d="M 283.5,112.5 C 287.5,115.833 287.5,119.167 283.5,122.5C 235.832,122.667 188.166,122.5 140.5,122C 137.486,118.444 137.82,115.444 141.5,113C 188.832,112.5 236.165,112.333 283.5,112.5 Z"/></g>
<g><path style="opacity:1" fill="#c9e3ef" d="M 283.5,112.5 C 293.839,112.334 304.172,112.5 314.5,113C 318.482,116.048 318.482,119.048 314.5,122C 304.172,122.5 293.839,122.666 283.5,122.5C 287.5,119.167 287.5,115.833 283.5,112.5 Z"/></g>
<g><path style="opacity:1" fill="#e4f3f3" d="M 349.5,158.5 C 349.188,180.879 349.521,203.212 350.5,225.5C 257.57,224.669 164.57,224.169 71.5,224C 67.4267,222.928 64.5933,220.428 63,216.5C 62.3333,200.167 62.3333,183.833 63,167.5C 64.0721,163.427 66.5721,160.593 70.5,159C 163.499,158.5 256.499,158.333 349.5,158.5 Z"/></g>
<g><path style="opacity:1" fill="#fefefe" d="M 78.5,167.5 C 89.8382,167.333 101.172,167.5 112.5,168C 115.625,168.979 118.125,170.813 120,173.5C 120.667,185.167 120.667,196.833 120,208.5C 118.734,212.1 116.234,214.267 112.5,215C 101.167,215.667 89.8333,215.667 78.5,215C 75.5107,213.345 73.6773,210.845 73,207.5C 72.3333,196.167 72.3333,184.833 73,173.5C 74.6993,171.304 76.5327,169.304 78.5,167.5 Z"/></g>
<g><path style="opacity:1" fill="#f35226" d="M 97.5,181.5 C 97.5,183.833 97.5,186.167 97.5,188.5C 95.5,188.5 93.5,188.5 91.5,188.5C 88.8661,186.46 88.8661,184.293 91.5,182C 93.4727,181.505 95.4727,181.338 97.5,181.5 Z"/></g>
<g><path style="opacity:1" fill="#f9786b" d="M 97.5,181.5 C 104.259,181.233 105.926,183.9 102.5,189.5C 100.5,189.5 98.5,189.5 96.5,189.5C 94.8333,189.5 93.1667,189.5 91.5,189.5C 91.5,189.167 91.5,188.833 91.5,188.5C 93.5,188.5 95.5,188.5 97.5,188.5C 97.5,186.167 97.5,183.833 97.5,181.5 Z"/></g>
<g><path style="opacity:1" fill="#1cbcfd" d="M 241.5,186.5 C 245.5,189.833 245.5,193.167 241.5,196.5C 207.832,196.667 174.165,196.5 140.5,196C 137.486,192.444 137.82,189.444 141.5,187C 174.832,186.5 208.165,186.333 241.5,186.5 Z"/></g>
<g><path style="opacity:1" fill="#c9e3f0" d="M 241.5,186.5 C 265.836,186.333 290.169,186.5 314.5,187C 318.482,190.048 318.482,193.048 314.5,196C 290.169,196.5 265.836,196.667 241.5,196.5C 245.5,193.167 245.5,189.833 241.5,186.5 Z"/></g>
<g><path style="opacity:1" fill="#a55fff" d="M 91.5,189.5 C 93.1667,189.5 94.8333,189.5 96.5,189.5C 96.5,191.833 96.5,194.167 96.5,196.5C 94.8333,196.5 93.1667,196.5 91.5,196.5C 90.0532,195.866 89.3866,194.699 89.5,193C 89.3866,191.301 90.0532,190.134 91.5,189.5 Z"/></g>
<g><path style="opacity:1" fill="#49bbfe" d="M 96.5,189.5 C 98.5,189.5 100.5,189.5 102.5,189.5C 104.441,191.011 104.941,193.011 104,195.5C 101.636,196.304 99.4694,196.637 97.5,196.5C 97.1667,196.5 96.8333,196.5 96.5,196.5C 96.5,194.167 96.5,191.833 96.5,189.5 Z"/></g>
<g><path style="opacity:1" fill="#3ad191" d="M 91.5,196.5 C 93.1667,196.5 94.8333,196.5 96.5,196.5C 96.8333,196.5 97.1667,196.5 97.5,196.5C 98.6343,202.702 96.301,205.035 90.5,203.5C 89.073,200.884 89.4063,198.551 91.5,196.5 Z"/></g>
<g><path style="opacity:1" fill="#f4f9f9" d="M 73.5,252.5 C 158.167,252.333 242.834,252.5 327.5,253C 330.333,253.833 332.167,255.667 333,258.5C 333.667,299.167 333.667,339.833 333,380.5C 332.167,383.333 330.333,385.167 327.5,386C 242.085,386.994 156.752,386.661 71.5,385C 69.9512,383.786 68.7845,382.286 68,380.5C 67.3333,339.833 67.3333,299.167 68,258.5C 69.3597,255.977 71.193,253.977 73.5,252.5 Z"/></g>
<g><path style="opacity:1" fill="#4fa7cd" d="M 170.5,273.5 C 175.814,272.74 179.647,274.74 182,279.5C 182.667,296.5 182.667,313.5 182,330.5C 179.897,336.469 175.73,338.636 169.5,337C 167.622,335.457 166.122,333.624 165,331.5C 164.333,313.833 164.333,296.167 165,278.5C 166.73,276.598 168.563,274.931 170.5,273.5 Z"/></g>
<g><path style="opacity:1" fill="#4fa7cd" d="M 305.5,278.5 C 310.814,277.74 314.647,279.74 317,284.5C 317.667,301.5 317.667,318.5 317,335.5C 314.897,341.469 310.73,343.636 304.5,342C 302.622,340.457 301.122,338.624 300,336.5C 299.333,318.833 299.333,301.167 300,283.5C 301.73,281.598 303.563,279.931 305.5,278.5 Z"/></g>
<g><path style="opacity:1" fill="#4fa7cd" d="M 215.5,287.5 C 220.814,286.74 224.647,288.74 227,293.5C 227.667,310.5 227.667,327.5 227,344.5C 224.897,350.469 220.73,352.636 214.5,351C 212.622,349.457 211.122,347.624 210,345.5C 209.333,327.833 209.333,310.167 210,292.5C 211.73,290.598 213.563,288.931 215.5,287.5 Z"/></g>
<g><path style="opacity:1" fill="#4fa7cd" d="M 125.5,305.5 C 130.814,304.74 134.647,306.74 137,311.5C 137.667,328.5 137.667,345.5 137,362.5C 134.897,368.469 130.73,370.636 124.5,369C 122.622,367.457 121.122,365.624 120,363.5C 119.333,345.833 119.333,328.167 120,310.5C 121.73,308.598 123.563,306.931 125.5,305.5 Z"/></g>
<g><path style="opacity:1" fill="#4fa7cd" d="M 260.5,305.5 C 265.814,304.74 269.647,306.74 272,311.5C 272.667,328.5 272.667,345.5 272,362.5C 269.897,368.469 265.73,370.636 259.5,369C 257.622,367.457 256.122,365.624 255,363.5C 254.333,345.833 254.333,328.167 255,310.5C 256.73,308.598 258.563,306.931 260.5,305.5 Z"/></g>
</svg>
