<svg width="32" height="32" viewBox="0 0 32 32" fill="none" xmlns="http://www.w3.org/2000/svg">
<rect x="0.5" y="0.5" width="31" height="31" rx="15.5" stroke="#DBDBDB"/>
<path d="M22.5375 12.75C22.5375 12.9062 22.5375 13.0312 22.5375 13.1875C22.5375 17.5312 19.2563 22.5 13.225 22.5C11.35 22.5 9.63125 21.9688 8.19375 21.0312C8.44375 21.0625 8.69375 21.0938 8.975 21.0938C10.5063 21.0938 11.9125 20.5625 13.0375 19.6875C11.6 19.6562 10.3813 18.7188 9.975 17.4062C10.1938 17.4375 10.3813 17.4688 10.6 17.4688C10.8813 17.4688 11.1938 17.4062 11.4438 17.3438C9.94375 17.0312 8.81875 15.7188 8.81875 14.125V14.0938C9.25625 14.3438 9.7875 14.4688 10.3188 14.5C9.4125 13.9062 8.85 12.9062 8.85 11.7812C8.85 11.1562 9.00625 10.5938 9.2875 10.125C10.9125 12.0938 13.35 13.4062 16.0688 13.5625C16.0063 13.3125 15.975 13.0625 15.975 12.8125C15.975 11 17.4438 9.53125 19.2563 9.53125C20.1938 9.53125 21.0375 9.90625 21.6625 10.5625C22.3813 10.4062 23.1 10.125 23.725 9.75C23.475 10.5312 22.975 11.1562 22.2875 11.5625C22.9438 11.5 23.6 11.3125 24.1625 11.0625C23.725 11.7188 23.1625 12.2812 22.5375 12.75Z" fill="white" fill-opacity="0.99"/>
</svg>
